<?xml version="1.0" encoding="UTF-8"?>
<svg width="627px" height="159px" viewBox="0 0 627 159" version="1.1" xmlns="http://www.w3.org/2000/svg" xmlns:xlink="http://www.w3.org/1999/xlink">
    <title>Erlang Solutions Logo Full</title>
    <g id="Page-1" stroke="none" stroke-width="1" fill="none" fill-rule="evenodd">
        <g id="logo" fill="#1A1A1A" fill-rule="nonzero">
            <g id="Group" transform="translate(158.000000, 1.000000)">
                <polygon id="Path" points="4.5 65.3 4.5 0.9 57 0.9 57 10.6 15.9 10.6 15.9 27.4 55 27.4 55 37.1 15.9 37.1 15.9 55.8 58.9 55.8 57.3 65.5 4.5 65.5"></polygon>
                <path d="M70.2,65.3 L70.2,18.4 L80.8,18.4 L80.8,26.4 C83,23.6 85.6,21.4 88.6,19.9 C91.6,18.4 94.8,17.6 98.1,17.6 C99.5,17.6 101.2,17.8 103.2,18.1 L101.9,27.1 C100.1,26.8 98.4,26.6 96.9,26.6 C92.1,26.6 88.3,28 85.3,30.7 C82.4,33.3 80.9,36.4 80.9,40 L80.9,65.3 L70.2,65.3 L70.2,65.3 Z" id="Path"></path>
                <polygon id="Path" points="112.4 65.3 112.4 0.9 123.2 0.9 123.2 65.3 112.4 65.3"></polygon>
                <path d="M173.9,65.3 L173.9,58.5 C171.1,61.3 168.1,63.3 164.9,64.6 C161.7,65.9 157.8,66.5 153.4,66.5 C147.3,66.5 142.6,65.3 139.3,62.8 C136,60.3 134.3,56.8 134.3,52.2 C134.3,47.1 136.5,43.3 140.8,40.8 C145.1,38.3 151.9,36.9 161.1,36.6 L173.6,36.2 L173.6,34.7 C173.6,28.3 169.4,25.1 161,25.1 C156.9,25.1 153.8,25.6 151.5,26.6 C149.3,27.6 147.8,29.1 147.2,31.2 L137.5,30.1 C138.6,25.6 141,22.3 144.9,20.1 C148.7,18 154.2,16.9 161.3,16.9 C168.9,16.9 174.6,18.4 178.3,21.4 C182,24.4 183.9,29 183.9,35.2 L183.9,65.3 L173.9,65.3 L173.9,65.3 Z M173.6,43.4 L161.3,43.8 C155.6,44 151.6,44.7 149.1,45.9 C146.6,47.1 145.4,48.9 145.4,51.4 C145.4,53.6 146.4,55.4 148.3,56.6 C150.2,57.8 152.9,58.4 156.3,58.4 C158.9,58.4 161.4,58 163.7,57.3 C166.1,56.5 168.1,55.5 169.9,54.1 C172.4,52.2 173.6,49.7 173.6,46.6 L173.6,43.4 Z" id="Shape"></path>
                <path d="M236.9,65.3 L236.9,37 C236.9,33 236,30.2 234.1,28.4 C232.2,26.6 229.2,25.7 225.1,25.7 C222.8,25.7 220.6,26.1 218.5,27 C216.4,27.8 214.5,29 212.9,30.5 C210.1,33.1 208.7,36.2 208.7,39.7 L208.7,65.3 L197.9,65.3 L197.9,18.4 L208.5,18.4 L208.5,26.2 C213.7,20.1 220.4,17 228.5,17 C234.8,17 239.6,18.5 242.9,21.6 C246.2,24.7 247.8,29.2 247.8,35 L247.8,65.3 L236.9,65.3 L236.9,65.3 Z" id="Path"></path>
                <path d="M302.6,55.3 C298.3,61.2 291.6,64.1 282.7,64.1 C278.1,64.1 274.1,63.2 270.6,61.3 C267.1,59.4 264.3,56.7 262.3,53.2 C260.3,49.7 259.3,45.5 259.3,40.7 C259.3,36.2 260.3,32.2 262.3,28.6 C264.3,25 267.2,22.1 270.9,20 C274.6,17.9 278.9,16.8 283.8,16.8 C288.1,16.8 291.8,17.5 294.9,18.8 C298,20.1 300.7,22.2 302.9,25 L302.9,18.2 L313.5,18.2 L313.5,57.2 C313.5,66.4 311.4,73.1 307.2,77.3 C303,81.5 296.4,83.6 287.3,83.6 C279.3,83.6 273.2,82.4 269,79.9 C264.8,77.5 262.3,73.7 261.5,68.7 L272.4,68.7 C273.2,71 274.8,72.7 277.2,73.7 C279.5,74.8 282.9,75.3 287.2,75.3 C292.4,75.3 296.3,74.1 298.8,71.7 C301.3,69.3 302.6,65.6 302.6,60.6 L302.6,55.3 L302.6,55.3 Z M302.6,39.5 C302.6,35.6 301.2,32.2 298.3,29.3 C295.7,26.7 291.9,25.4 286.7,25.4 C281.5,25.4 277.5,26.7 274.7,29.4 C271.8,32 270.4,35.8 270.4,40.6 C270.4,45.4 271.8,49.1 274.5,51.7 C277.2,54.3 281.1,55.7 286.2,55.7 C288.7,55.7 291,55.3 293.1,54.5 C295.2,53.7 297,52.6 298.4,51.3 C301.2,48.6 302.6,45.4 302.6,41.8 L302.6,39.5 L302.6,39.5 Z" id="Shape"></path>
                <path d="M49.7,109.5 C48.7,107 47.5,105 45.9,103.5 C44.3,102 42.4,100.9 40,100.3 C37.7,99.6 34.7,99.3 31.2,99.3 C25.4,99.3 20.9,100.1 17.8,101.6 C14.6,103.1 13,105.3 13,108.2 C13,110.9 14,113 16.1,114.3 C18.2,115.7 21.8,116.8 27,117.5 L40.4,119.5 C47.9,120.6 53.4,122.8 57,125.9 C60.5,129 62.3,133.3 62.3,138.7 C62.3,144.8 59.7,149.5 54.5,152.8 C49.3,156.1 42,157.8 32.6,157.8 C22.4,157.8 14.6,156 9.4,152.5 C4.1,149 1.1,143.4 0.1,136 L11.7,136 C12.5,140.5 14.5,143.7 17.9,145.7 C21.2,147.7 26.2,148.7 32.7,148.7 C38.5,148.7 43,147.8 46.1,146.1 C49.2,144.4 50.7,141.9 50.7,138.7 C50.7,136.1 49.6,134 47.5,132.5 C45.4,131 42,129.9 37.5,129.3 L25.9,127.6 C19.9,126.7 15.2,125.5 11.7,123.9 C8.2,122.3 5.7,120.3 4.1,117.8 C2.5,115.3 1.8,112.2 1.8,108.6 C1.8,102.8 4.4,98.3 9.6,95.1 C14.8,91.9 22.1,90.3 31.5,90.3 C37.3,90.3 42.1,90.9 46,92.2 C49.9,93.5 53.1,95.4 55.4,98 C57.8,100.6 59.5,104 60.6,108.1 L49.7,109.5 Z" id="Path"></path>
                <path d="M126.9,132.5 C126.9,137.4 125.8,141.8 123.6,145.5 C121.4,149.3 118.1,152.2 113.9,154.3 C109.7,156.4 104.7,157.5 99,157.5 C90.5,157.5 83.8,155.3 79,150.9 C74.1,146.5 71.7,140.5 71.7,132.8 C71.7,127.9 72.8,123.5 75,119.8 C77.2,116 80.4,113.1 84.7,111 C88.9,108.9 93.9,107.8 99.6,107.8 C108.1,107.8 114.9,110 119.7,114.4 C124.5,118.7 126.9,124.8 126.9,132.5 Z M115.7,132.7 C115.7,127.5 114.3,123.4 111.4,120.6 C108.5,117.7 104.5,116.3 99.3,116.3 C94.1,116.3 90,117.7 87.1,120.6 C84.2,123.5 82.8,127.5 82.8,132.7 C82.8,137.9 84.2,142 87.1,144.8 C90,147.7 94,149.1 99.1,149.1 C104.4,149.1 108.5,147.7 111.4,144.8 C114.3,141.9 115.7,137.9 115.7,132.7 Z" id="Shape"></path>
                <polygon id="Path" points="138.7 156.1 138.7 91.7 149.5 91.7 149.5 156.1"></polygon>
                <path d="M201.9,156.1 L201.9,148.3 C196.7,154.4 190.1,157.5 182.1,157.5 C176.1,157.5 171.5,156 168.3,152.9 C165.1,149.8 163.4,145.4 163.4,139.7 L163.4,109.1 L174.2,109.1 L174.2,137.8 C174.2,141.5 175.1,144.2 177,146 C178.8,147.8 181.6,148.7 185.4,148.7 C189.9,148.7 193.9,147.2 197.4,144.1 C200.2,141.6 201.6,138.5 201.6,134.8 L201.6,109.1 L212.4,109.1 L212.4,156 L201.9,156 L201.9,156.1 Z" id="Path"></path>
                <path d="M259.2,155.2 C255.2,156.5 251,157.1 246.8,157.1 C241.3,157.1 237.2,155.8 234.7,153.3 C232.1,150.7 230.9,146.6 230.9,141 L230.9,117.4 L221.8,117.4 L221.8,109.2 L230.9,109.2 L230.9,96.6 L241.7,96.6 L241.7,109.2 L257.8,109.2 L257.8,117.4 L241.7,117.4 L241.7,141.3 C241.7,143.8 242.3,145.6 243.5,146.8 C244.7,148 246.6,148.6 249.2,148.6 C252,148.6 254.7,148.1 257.5,147.2 L259.2,155.2 Z" id="Path"></path>
                <path d="M268,102.2 L268,91.6 L279.2,91.6 L279.2,102.2 L268,102.2 Z M268.2,156.1 L268.2,109.2 L279,109.2 L279,156.1 L268.2,156.1 Z" id="Shape"></path>
                <path d="M346.1,132.5 C346.1,137.4 345,141.8 342.8,145.5 C340.6,149.3 337.3,152.2 333.1,154.3 C328.9,156.4 323.9,157.5 318.2,157.5 C309.7,157.5 303,155.3 298.2,150.9 C293.3,146.5 290.9,140.5 290.9,132.8 C290.9,127.9 292,123.5 294.2,119.8 C296.4,116 299.6,113.1 303.9,111 C308.1,108.9 313.1,107.8 318.8,107.8 C327.3,107.8 334.1,110 338.9,114.4 C343.7,118.8 346.1,124.8 346.1,132.5 Z M334.9,132.7 C334.9,127.5 333.5,123.4 330.6,120.6 C327.7,117.7 323.7,116.3 318.5,116.3 C313.3,116.3 309.2,117.7 306.3,120.6 C303.4,123.5 302,127.5 302,132.7 C302,137.9 303.4,142 306.3,144.8 C309.2,147.7 313.2,149.1 318.3,149.1 C323.6,149.1 327.7,147.7 330.6,144.8 C333.5,141.9 334.9,137.9 334.9,132.7 Z" id="Shape"></path>
                <path d="M397.1,156.1 L397.1,127.8 C397.1,123.8 396.2,121 394.3,119.2 C392.4,117.4 389.4,116.5 385.3,116.5 C383,116.5 380.8,116.9 378.7,117.8 C376.6,118.6 374.7,119.8 373.1,121.3 C370.3,123.9 368.9,127 368.9,130.5 L368.9,156.1 L358.1,156.1 L358.1,109.2 L368.7,109.2 L368.7,117 C373.9,110.9 380.6,107.8 388.7,107.8 C395,107.8 399.8,109.3 403.1,112.4 C406.4,115.5 408,120 408,125.8 L408,156.1 L397.1,156.1 L397.1,156.1 Z" id="Path"></path>
                <path d="M456.5,122 C455.7,119.9 454.2,118.4 452,117.4 C449.9,116.4 446.8,116 442.9,116 C438.9,116 435.9,116.5 433.8,117.4 C431.7,118.3 430.6,119.7 430.6,121.5 C430.6,122.9 430.9,123.9 431.6,124.6 C432.3,125.3 433.4,125.9 434.9,126.4 C436.5,126.9 438.7,127.3 441.6,127.8 L447.6,128.7 C452.8,129.5 456.9,130.5 459.8,131.6 C462.7,132.8 464.7,134.2 466,136 C467.2,137.8 467.8,140 467.8,142.8 C467.8,147.7 465.8,151.4 461.8,153.9 C457.8,156.4 451.9,157.6 444.1,157.6 C436.3,157.6 430.3,156.3 426.2,153.7 C422.1,151.1 419.6,147.1 418.7,141.8 L429.3,141.8 C430.1,144.4 431.6,146.3 433.9,147.4 C436.2,148.6 439.6,149.2 444,149.2 C452.8,149.2 457.2,147.2 457.2,143.3 C457.2,141.6 456.4,140.3 454.8,139.4 C453.2,138.6 450.2,137.8 445.8,137.1 L439.8,136.2 C434.7,135.5 430.8,134.5 428,133.3 C425.2,132.1 423.2,130.6 422,128.7 C420.8,126.8 420.2,124.5 420.2,121.6 C420.2,117.3 422.2,113.9 426.3,111.4 C430.4,108.9 435.9,107.7 443,107.7 C450,107.7 455.4,108.7 459.2,110.8 C463,112.9 465.5,116.2 466.8,120.9 L456.5,122 Z" id="Path"></path>
            </g>
            <rect id="Rectangle" x="0.2" y="131" width="106.3" height="25.9"></rect>
            <polygon id="Path" points="106.4 91.7 106.4 65.8 26 65.8 26 26.5 106.4 26.5 106.4 0.6 0.2 0.6 0.2 91.7"></polygon>
        </g>
    </g>
</svg>