<?xml version="1.0" encoding="UTF-8" standalone="no"?>
<!DOCTYPE svg PUBLIC "-//W3C//DTD SVG 1.1//EN" "http://www.w3.org/Graphics/SVG/1.1/DTD/svg11.dtd">
<svg width="100%" height="100%" viewBox="0 0 140 21" version="1.1" xmlns="http://www.w3.org/2000/svg" xmlns:xlink="http://www.w3.org/1999/xlink" xml:space="preserve" xmlns:serif="http://www.serif.com/" style="fill-rule:evenodd;clip-rule:evenodd;stroke-linejoin:round;stroke-miterlimit:2;">
    <path d="M3.357,0L10.518,11.071L8.672,13.911L3.559,5.992L3.559,20L-0,20L-0,0L3.357,0ZM111.192,1.758L111.192,5.886L114.505,5.886L114.505,8.389L111.192,8.389L111.192,15.18C111.192,16.724 111.699,17.444 113.356,17.444C113.757,17.444 114.184,17.444 114.505,17.417L114.505,19.92C113.997,19.973 113.383,20 112.822,20L112.575,19.997C109.411,19.926 108.039,18.449 108.039,15.073L108.039,8.389L105.607,8.389L105.607,5.886L108.039,5.886L108.039,1.758L111.192,1.758ZM19.984,0L19.984,20L16.425,20L16.425,0L19.984,0ZM101.148,1.758L101.148,5.886L104.461,5.886L104.461,8.389L101.148,8.389L101.148,15.18C101.148,16.724 101.655,17.444 103.312,17.444C103.713,17.444 104.14,17.444 104.461,17.417L104.461,19.92C103.953,19.973 103.338,20 102.777,20L102.53,19.997C99.366,19.926 97.994,18.449 97.994,15.073L97.994,8.389L95.563,8.389L95.563,5.886L97.994,5.886L97.994,1.758L101.148,1.758ZM122.171,5.566C126.153,5.566 128.878,8.575 128.878,12.863L128.878,13.058C128.876,13.34 128.867,13.694 128.825,13.928L118.617,13.928C118.911,16.032 120.461,17.443 122.599,17.443C123.988,17.443 125.137,16.804 126.046,15.686L128.264,17.257C126.954,19.015 124.977,20 122.626,20C118.27,20 115.411,17.017 115.411,12.783C115.411,8.602 118.11,5.566 122.171,5.566ZM88.252,5.566C92.821,5.566 94.184,8.016 94.184,11.558L94.184,19.68L91.031,19.68L91.031,18.535C90.042,19.494 88.573,20 86.97,20C83.951,20 81.759,18.136 81.759,15.499C81.759,12.863 83.951,10.999 86.97,10.999C88.68,10.999 89.962,11.505 91.031,12.33L91.031,11.025C91.031,9.294 90.283,8.149 87.878,8.149C86.622,8.149 85.393,8.575 84.351,9.427L82.534,7.617C84.137,6.258 86.141,5.566 88.252,5.566ZM28.297,5.566C32.866,5.566 34.229,8.016 34.229,11.558L34.229,19.68L31.076,19.68L31.076,18.535C30.088,19.494 28.618,20 27.015,20C23.995,20 21.804,18.136 21.804,15.499C21.804,12.863 23.995,10.999 27.015,10.999C28.725,10.999 30.007,11.505 31.076,12.33L31.076,11.025C31.076,9.294 30.328,8.149 27.923,8.149C26.667,8.149 25.438,8.575 24.396,9.427L22.579,7.617C24.182,6.258 26.186,5.566 28.297,5.566ZM40.359,5.886L40.359,19.681L37.205,19.681L37.205,5.886L40.359,5.886ZM51.266,5.566C54.178,5.566 56.156,7.377 56.156,10.732L56.156,19.68L53.003,19.68L53.003,11.185C53.003,9.241 52.148,8.122 50.331,8.122L50.087,8.13C48.634,8.218 47.325,9.078 46.617,9.987L46.617,19.68L43.464,19.68L43.464,5.886L46.617,5.886L46.617,7.483C47.685,6.418 49.262,5.566 51.266,5.566ZM75.135,5.566C78.021,5.566 79.625,7.35 79.625,10.652L79.625,19.68L76.472,19.68L76.472,11.158C76.472,9.214 75.857,8.122 74.12,8.122C72.945,8.122 71.635,8.841 70.914,9.827C70.967,10.226 70.967,10.626 70.967,11.052L70.967,19.68L67.814,19.68L67.814,11.158C67.814,9.214 67.253,8.122 65.463,8.122C64.26,8.122 63.031,8.788 62.283,9.694L62.283,19.68L59.13,19.68L59.13,5.886L62.283,5.886L62.283,7.27C63.405,6.258 64.848,5.566 66.505,5.566C68.295,5.566 69.604,6.285 70.299,7.617C71.501,6.498 72.998,5.566 75.135,5.566ZM138.473,5.566C138.767,5.566 139.088,5.593 139.355,5.619L139.355,8.229C139.088,8.202 138.634,8.176 138.233,8.176C136.603,8.176 135.107,9.001 134.305,10.253L134.305,19.68L131.152,19.68L131.152,5.886L134.305,5.886L134.305,7.563C135.24,6.311 136.63,5.566 138.473,5.566ZM87.771,13.555C86.061,13.555 84.966,14.194 84.966,15.499C84.966,16.804 86.061,17.443 87.771,17.443L88.012,17.438C89.133,17.388 90.233,16.988 91.031,16.218L91.031,14.78C90.15,13.981 89.027,13.555 87.771,13.555ZM27.816,13.555C26.106,13.555 25.011,14.194 25.011,15.499C25.011,16.804 26.106,17.443 27.816,17.443L28.057,17.438C29.177,17.388 30.278,16.988 31.076,16.218L31.076,14.78C30.195,13.981 29.072,13.555 27.816,13.555ZM122.171,8.122L121.962,8.127C120.102,8.215 118.874,9.477 118.591,11.531L125.699,11.531C125.538,9.428 124.068,8.122 122.171,8.122ZM38.782,0C39.878,0 40.733,0.825 40.733,1.918L40.727,2.072C40.651,3.086 39.826,3.835 38.782,3.835C37.686,3.835 36.832,3.009 36.832,1.918C36.832,0.825 37.686,-0 38.782,-0Z" style="fill:rgb(98,0,238);"/>
</svg>
