<?xml version="1.0" encoding="UTF-8"?><svg aria-labelledby="title-shiguredo-logo" role="img" id="_レイヤー_1" xmlns="http://www.w3.org/2000/svg" viewBox="0 0 600 600">
  <title id="title-shiguredo-logo">Shiguredo Inc. logo (時雨堂 ロゴ)</title>
<defs><style>.cls-1,.cls-2{fill:#036eb7;}.cls-3{fill:none;stroke:#036eb7;stroke-miterlimit:10;stroke-width:4px;}.cls-2,.cls-4{stroke-width:0px;}.cls-4{fill:#fff;}</style></defs><ellipse class="cls-4" cx="299.69" cy="298.53" rx="295.62" ry="296.53"/><path class="cls-2" d="M160.77,116.73c1.85,0,3.55-.14,5.83-2.14,3.27-3.14,3.7-3.57,4.41-3.57,1.56,0,7.82,6.14,7.82,7.71,0,1.29-2.84,6.14-3.13,7.14-.85,5-.85,15.84-.85,18.27,0,7.42.85,40.25.85,46.82,0,2,0,6.14-2.56,8.71-1.85,1.86-4.83,3.28-5.97,3.28-2.56,0-2.7-3.28-2.7-4.14,0-3.43,0-4.43-3.98-4.43h-8.11c-3.13,0-3.98,2-3.98,4,0,.43,0,6.14-.14,6.99-.43,3.71-5.12,8.42-7.25,8.42-3.84,0-3.84-3.28-3.84-4.57s.57-10.42.57-12.42c.43-15.13.71-25.26.71-65.23,0-3-.43-16.27-.43-18.84,0-.71,0-1.57.85-1.57,1,0,3.41,1.43,6.4,3.14,3.55,2.14,4.84,2.43,7.82,2.43h7.68ZM160.49,190.66c1.28,0,3.41,0,4.27-1.86.43-1,.43-12.42.43-15.41,0-5.14,0-14.27-.43-15.27-.43-.86-1.42-1.86-3.27-1.86h-9.67c-3.7,0-3.7,1.14-3.7,12.85,0,4,0,18.7.57,19.7.43,1.43,1.99,1.86,3.41,1.86h8.39ZM152.38,120.58c-1.14,0-2.13.14-2.99,1.14-1.14,1.43-1.14,21.84-1.14,25.12s0,5.71,3.98,5.71h8.67c.85,0,2.99,0,3.84-1.86.57-1.43.57-16.27.57-19.13,0-10.28,0-10.99-4.12-10.99h-8.82ZM233.58,148.84c6.68,0,7.39,0,9.53-3.57,1-1.57,3.55-5.71,5.83-5.71.71,0,4.55,3.14,5.69,4,6.68,5.57,7.11,5.85,7.11,6.99,0,2-2.99,2-7.68,2h-53.61c-6.68,0-12.51.14-15.22.43-.57,0-2.7.29-3.13.29s-.71-.29-1.14-.86l-2.84-3.28q-.57-.71-.57-1c0-.28.14-.28.43-.28,1.14,0,5.55.43,6.4.43,4.98.29,12.09.57,16.78.57h5.55c4.27,0,4.27-2.85,4.27-4.57,0-3,0-10.85-.14-13.42-.14-3.57-2.42-3.57-3.84-3.57-4.55,0-11.8,0-15.93.28-.43,0-2.56.43-2.99.43-.57,0-.85-.43-1.28-1l-2.7-3.28c-.57-.57-.71-.71-.71-.86,0-.29.28-.43.57-.43,1,0,5.4.43,6.26.57,5.12.14,11.38.43,16.35.43,1.57,0,4.27,0,4.27-3.57,0-6.42-.28-11.85-.85-15.84-.14-.71-.57-3.43-.57-4,0-.86.57-1.14,1.14-1.14.14,0,15.07,4.28,15.07,6.14,0,.71-3.13,3.14-3.56,3.71-.99,1.14-.99,4.14-.99,5.71,0,8.56,0,8.99,6.11,8.99s7.96.14,9.81-2.57q3.98-5.57,5.12-5.57c1.85,0,12.51,9.14,12.51,10.42,0,1.57-.71,1.57-6.97,1.57h-22.33c-3.98,0-3.98,2.28-3.98,5.71,0,11.7,0,12.99.43,13.99.71,1.85,2.7,1.85,3.7,1.85h8.11ZM238.99,177.25c-4.27,0-4.84,1.28-4.84,5.14,0,5.57.71,29.83.71,34.83,0,11.13-11.66,11.56-13.65,11.56-1.42,0-1.99-.14-1.99-1.71,0-3.71,0-5.71-5.97-7.85-1.42-.43-7.68-2-8.82-2.43-.57-.29-2.28-1.14-2.28-1.71s.85-1,2.13-1c.57,0,13.51,1.57,16.07,1.57,2.42,0,3.13-.29,3.7-2.28.28-1.14.43-2.86.43-17.56,0-18.27-.14-18.56-4.84-18.56h-11.66c-3.13,0-12.94,0-17.92.29-.43.14-2.56.43-2.99.43-.57,0-.85-.43-1.28-1l-2.7-3.28c-.57-.57-.71-.71-.71-.86,0-.28.28-.43.57-.43,1,0,5.4.43,6.26.57,6.54.28,12.94.43,19.48.43h11.09c4.12,0,4.12-2.43,4.12-4.85,0-1.86-.71-11.42-.71-11.7,0-1.14.28-1.71,1.14-1.71s14.22,3.85,14.22,6.71c0,.86-3.55,3.57-3.84,4.28-.28.57-.71,1.57-.71,4.28,0,2.43,1.28,3,2.7,3,1.71,0,2.13-.57,5.69-5.42,1.28-1.86,2.84-3.71,4.41-3.71.71,0,1.28.43,5.69,4,6.68,5.42,7.11,5.85,7.11,6.99,0,2-2.84,2-7.54,2h-13.08ZM207.13,207.65c-3.13,0-3.98-1.57-6.97-6.71-3.84-6.28-10.38-10.99-12.66-12.56-.57-.43-5.12-3.71-5.12-3.85,0-.71.71-.86,1.14-.86,2.84,0,28.58,5,28.58,18.84,0,1.71-1.71,5.14-4.98,5.14Z"/><path class="cls-2" d="M185.8,274.75c3.98,0,3.98-2.42,3.98-4.71,0-1.29,0-13.85-.28-14.7-.85-2-2.7-2-4.12-2h-27.73c-12.52,0-16.64.29-17.92.29-.57.14-2.56.43-3.13.43-.43,0-.71-.43-1.14-1l-2.84-3.28c-.28-.43-.57-.71-.57-.86,0-.29.14-.43.57-.43.85,0,5.26.43,6.26.57,6.97.28,12.8.43,19.48.43h72.67c6.83,0,7.54,0,10.38-4.14,3.41-5,3.56-5.14,4.69-5.14,2.13,0,11.94,9.71,11.94,11.14,0,2-2.7,2-7.54,2h-46.07c-4.69,0-4.69,1-4.69,10.28,0,9.99,0,11.13,4.41,11.13h29.44c3.13,0,4.55-1.14,5.12-1.86,1.14-1.43,2.42-2.71,2.99-2.71,1.85,0,12.94,8.28,12.94,9.99,0,1.29-.43,1.43-3.98,3.71-2.42,1.57-2.42,2.28-2.42,9.28,0,5.42.28,29.12.28,33.97,0,23.27,0,25.98-1,28.26-2.28,5.57-11.09,7.56-12.66,7.56-1.99,0-2.7-.86-3.55-3.42-1.99-5.42-5.97-7.71-8.53-8.42-.71-.14-3.27-.86-3.27-1.43,0-.43.57-.43.85-.43.85,0,14.22,0,14.65-.14,2.42-.43,2.56-3.14,2.7-6.14.28-10.71.71-46.82.71-60.38,0-3.57-2.13-4.14-4.41-4.14h-29.86c-4.41,0-4.41.43-4.41,13.7,0,9.42,0,49.67.57,56.81.14,1.14.28,3.71.28,4.71,0,7.42-6.97,7.71-7.82,7.71-4.27,0-4.27-2.43-4.27-3.71,0-1.57.57-8.14.57-9.42.71-14.99.85-27.55.85-34.11,0-3.28,0-32.4-.14-32.97-.43-1.57-1.42-2.71-4.12-2.71h-28.72c-4.12,0-4.27,2.43-4.27,5.57.14,11.28.14,61.09.14,71.22,0,5.28-5.55,7.14-8.96,7.14-2.99,0-2.99-3.42-2.99-4.42,0-2.14,1-15.7,1-18.7v-54.95c0-1.86-1.14-11.42-1.14-12.85,0-1,.14-1.43,1.14-1.43,1.71,0,7.11,2.14,9.67,3.28,1.85.86,3.13,1.43,5.4,1.43h28.87ZM179.4,302.73c0,3.85-2.7,5.85-4.98,5.85-2.7,0-3.56-2.14-4.84-5.14-1.71-4.28-5.4-8.85-8.53-12.42-.57-.57-1.71-1.86-1.71-2.14,0-.14.14-.28.28-.43.57-.14,19.77,4.43,19.77,14.27ZM179.4,333.84c0,4-3.41,6.85-5.83,6.85-2.56,0-3.13-1.57-5.12-7.14-1.56-4.28-5.69-10.56-7.4-12.99-.57-.86-1.28-1.71-1.28-2,0-.14.14-.43.28-.43,2.42-.57,19.34,6,19.34,15.7ZM231.02,333.42c0,3.85-2.99,5.85-4.69,5.85-1.85,0-2.84-1.43-4.69-4.57-3.13-5.28-8.25-10.28-12.66-14.27-1.42-1.28-1.71-1.43-1.28-1.71,1.99-1.28,23.32,2.57,23.32,14.7ZM229.89,303.73c0,4-2.7,6.28-4.69,6.28-2.42,0-3.27-1.86-4.41-4.57-2.13-5.14-7.54-10.7-9.67-12.99-.57-.57-3.27-2.86-3.27-3.14s.28-.43.43-.43c3.13-1.28,21.61,3.43,21.61,14.85Z"/><path class="cls-2" d="M237.42,410.65c1.85,0,2.99-.28,4.41-2.43.99-1.57,1.71-2.28,2.42-2.28.57,0,13.94,8.85,13.94,12.56,0,2-1.42,2.85-4.27,3-5.97.14-6.83.14-9.53,1-1.56.43-9.53,4.57-9.53,4.28.28-.43,4.41-8.71,4.41-10.42,0-2-1.42-2-2.7-2h-81.77c-2.42,0-3.55,0-3.84,3.28-1.42,15.13-9.95,20.41-14.08,20.41-2.13,0-4.98-1.71-4.98-5.28s1.85-5.14,4.41-7.56c3.84-3.57,6.68-7.71,8.53-15.13.28-1.14,1.42-7.56,1.85-7.56.57,0,.71.57,2.84,5.28,1,2.28,1.42,2.86,4.98,2.86h30.86c4.41,0,4.41-2.14,4.41-8.71,0-3.14-.14-12.13-.57-14.85-.14-.71-.85-4.28-.85-5,0-.43.14-1,1.42-1,1.71,0,14.65,2,14.65,5.71,0,.86-.71,1.57-1.28,2-.14.14-2.13,1.86-2.28,2.14-.71,1.14-.71,9.28-.71,14.13,0,3.28,0,5.57,4.41,5.57h32.85ZM215.24,477.59c3.98,0,5.83,0,6.97-.43,1.42-.71,5.97-7.42,7.39-7.42,1.71,0,10.81,7.28,10.81,9.56,0,2.14-2.56,2.14-7.68,2.14h-28.58c-4.27,0-4.55,2.14-4.55,5.85,0,11.42,0,12.56,4.27,12.56h27.16c6.11,0,7.25-.14,8.11-1,1.28-1.43,6.11-8.71,7.82-8.71,1.56,0,11.94,9.28,11.94,11.56,0,2-2.42,2-7.39,2h-93.71c-12.51,0-16.64.29-17.92.29-.57.14-2.7.43-3.13.43s-.71-.43-1.14-1l-2.84-3.28c-.57-.57-.57-.71-.57-.86,0-.29.14-.43.43-.43.99,0,5.4.57,6.4.57,6.97.43,12.8.43,19.48.43h26.73c4.27,0,4.27-2.28,4.27-5.71,0-11.99,0-12.7-4.12-12.7h-10.52c-12.51,0-16.64.28-18.06.28-.43.14-2.56.43-2.99.43s-.71-.43-1.28-1l-2.7-3.28c-.57-.57-.57-.71-.57-.86,0-.29.14-.43.43-.43,1,0,5.4.57,6.26.57,6.97.43,12.8.43,19.48.43h9.96c4.12,0,4.12-2.57,4.12-5.28,0-15.7-.28-16.84-5.55-16.84h-4.98c-3.98,0-4.27,2.28-4.41,3.85-.28,1.86-.71,5.85-6.4,5.85-2.7,0-4.41-.71-4.41-3.85,0-1.57.71-8.28.71-9.56.14-4.71.28-9.42.28-11.7,0-3-.14-7.85-.43-10.71-.14-.71-1-4-1-4.71,0-1,.71-1.28,1.28-1.28,1.99,0,4.98,1.28,7.25,2.28,3.7,1.57,6.11,1.57,7.39,1.57h33.28c1.42,0,3.41,0,5.26-2.43,1.42-1.86,1.71-2.14,2.7-2.14,1.71,0,9.96,6.42,9.96,8.42,0,1.14-.43,1.57-2.99,3.85-1.14,1.14-1.14,3.28-1.14,7.42,0,1.85.28,10.56.28,12.42,0,6.85-6.11,6.85-6.68,6.85-3.13,0-3.56-1.43-3.98-3.57-.57-2.57-2.42-2.57-3.98-2.57h-15.64c-.43,0-1.28,0-1.28.71,0,.86.28,1,4.12,2.57,4.27,1.71,4.55,2.57,4.55,3.28,0,.86-3.13,3.28-3.41,4-.28.71-.71,1.71-.71,6.28,0,3.42.57,5.28,4.55,5.28h11.09ZM174.43,401.23c0,4.71-3.41,5.57-4.69,5.57-2.28,0-2.7-.86-6.97-8.85-.43-.86-3.84-7.14-8.82-10.71-.43-.28-1.71-1.28-1.71-1.43,0-.28,1-.43,1.14-.43,2.28,0,6.26.86,10.81,2.86,3.27,1.57,10.24,5.42,10.24,12.99ZM178.83,430.92c-3.7,0-4.55,1.14-4.55,5.14,0,12.56,0,12.85.57,13.99.71,1.71,2.7,1.71,3.98,1.71h33.28c4.12,0,4.84-.14,4.84-14.27,0-4.85-.14-6.56-4.55-6.56h-33.56ZM237.99,394.09c0,1.86-1.85,2-3.84,2q-2.28.14-10.52,4.85c-4.84,2.71-10.1,4.85-11.38,4.85-.14,0-.43,0-.43-.14s5.55-7.42,6.4-8.99c4.55-7.57,5.12-8.28,5.97-10.99.71-2,.85-2.43,1.71-2.43,1.71,0,4.83,2.71,6.26,3.85,2.7,2.43,5.83,5.14,5.83,6.99Z"/><polygon class="cls-2" points="350.86 522.48 347.39 520.48 522.17 216.83 525.63 218.83 350.86 522.48"/><polygon class="cls-2" points="255.35 586.06 251.89 584.05 426.66 280.4 430.12 282.41 255.35 586.06"/><polygon class="cls-2" points="279.95 390.95 276.49 388.94 401.32 172.05 404.79 174.05 279.95 390.95"/><polygon class="cls-2" points="458.72 483.11 455.25 481.11 580.09 264.21 583.55 266.22 458.72 483.11"/><polygon class="cls-2" points="37.76 387.99 34.3 385.99 84.24 299.23 87.7 301.23 37.76 387.99"/><polygon class="cls-2" points="25.28 273.44 21.82 271.43 96.72 141.3 100.18 143.3 25.28 273.44"/><line class="cls-3" x1="347.13" y1="76.18" x2="272.23" y2="206.32"/><polygon class="cls-2" points="194.93 84.59 191.47 82.59 221.43 30.53 224.89 32.53 194.93 84.59"/><polygon class="cls-2" points="71.09 465.27 67.63 463.26 97.59 411.21 101.05 413.21 71.09 465.27"/><path class="cls-2" d="M449.28,85.91c-3.05-11.43-8.55-21.53-15.77-29.94-9.02-4.75-18.51-8.45-27.56-13.4-7.89-4.31-16.56-10.11-25.64-13.07-7.96-.48-16.13.27-24.25,2.46-40.61,10.91-64.71,52.76-53.84,93.47,10.87,40.71,52.61,64.86,93.22,53.95,40.61-10.91,64.71-52.76,53.84-93.47Z"/><path class="cls-2" d="M378.87,29.33c-3.17-.26-6.36-.26-9.56.05-3.5.34-5.3-2.09-5.45-4.81-.13-.3-.24-.61-.33-.93-20.67-4.72-41.15-10.78-62.3-12.46-18.18-1.44-36.44-.62-54.57-1.99-7.5,14.92-9.78,32.55-5.13,49.95,10.05,37.62,48.62,59.95,86.16,49.86,35.3-9.49,57.08-44.27,51.19-79.68Z"/><path class="cls-2" d="M531.72,138.28c-4.55-5.75-9.47-11.24-14.94-16.47-13.01-12.46-25.64-26.27-40.11-37.02-.21-.16-.42-.31-.64-.47-.79-.41-1.57-.82-2.36-1.22-.3-.15-.57-.32-.82-.49-1.78-.15-3.55-.21-5.32-.15-3.8.14-5.62-2.82-5.51-5.78-1.41.27-2.82.58-4.22.95-31.38,8.43-50.01,40.77-41.6,72.23,8.4,31.46,40.65,50.12,72.03,41.69,25.04-6.73,41.94-28.69,43.48-53.27Z"/><path class="cls-2" d="M576.58,208.65c-.12-.16-.21-.35-.32-.52-.02-.04-.05-.06-.07-.1-10.45-14.03-18.66-29.44-27.47-44.51-9.05-15.48-18.98-29.29-31.94-41.71-1.92-1.84-3.84-3.72-5.75-5.6-28.65,10.18-45.13,40.89-37.13,70.82,8.4,31.46,40.65,50.12,72.03,41.69,12.57-3.38,23.09-10.6,30.65-20.06Z"/><ellipse class="cls-2" cx="360.35" cy="39.18" rx="25.62" ry="63.73" transform="translate(172.89 349.42) rotate(-65.06)"/><ellipse class="cls-2" cx="455.98" cy="73.25" rx="16.04" ry="43.58" transform="translate(267.75 494.98) rotate(-75.07)"/><path class="cls-1" d="M299.16,598c-51.53,0-102.4-13.51-148.28-39.95-68.95-39.75-118.21-103.88-138.7-180.59-20.49-76.72-9.8-156.97,30.1-225.98C82.16,82.48,146.41,33.12,223.17,12.49c76.75-20.63,156.99-10.1,225.94,29.64,68.96,39.75,118.23,103.89,138.72,180.61,20.49,76.7,9.79,156.95-30.11,225.96-39.9,69-104.14,118.36-180.9,138.99-25.68,6.9-51.76,10.32-77.67,10.32ZM300.79,23.22c-24.09,0-48.31,3.17-72.19,9.59C157.24,51.99,97.5,97.88,60.41,162.03c-37.08,64.14-47.02,138.71-27.98,209.98,19.04,71.26,64.81,130.85,128.89,167.79,64.1,36.95,138.7,46.74,210.07,27.55,71.36-19.18,131.09-65.07,168.18-129.22,37.09-64.14,47.03-138.7,28-209.96-19.04-71.27-64.82-130.87-128.91-167.81-42.65-24.59-89.97-37.15-137.87-37.15Z"/></svg>