<svg xmlns="http://www.w3.org/2000/svg" width="430" height="175" viewBox="70 195 430 175" preserveAspectRatio="xMinYMin meet">
  <title>
    GRiSP Logo
  </title>
  <rect id="on-black" fill="black" x="70" y="195" width="430" height="175" display="none"/>
  <style>
    #on-black:target {display: inline;}
  </style>
  <g fill="#178FCF">
    <circle cx="162.04" cy="217.48" r="5.25"/>
    <path d="M182.84 207.07c.93 0 1.82-.2 2.6-.57-2.73-1.86-5.67-3.44-8.76-4.74.44 3 3.03 5.3 6.16 5.3z"/>
    <path d="M208.46 224.27c0-9.4-7.62-17.02-17.02-17.02-3.84 0-7.37 1.3-10.22 3.44-5.6-.1-10.12-4.68-10.12-10.3-3.2-.78-6.56-1.18-10-1.18-1.78 0-3.53.13-5.25.34-6.97.54-27.46 3.92-40.84 24.46-1.97-10.76-10.4-19.26-21.1-21.35 5.42 4.9 8.83 11.97 8.83 19.85 0 14.75-11.96 26.7-26.7 26.7-1.77 0-3.5-.16-5.16-.5 4.73 4.28 11 6.87 17.87 6.87 8.52 0 16.08-4 20.97-10.2 3.82 13.75 19.1 31.17 39.4 36.43.17.04.3.04.42 0 3.68 1.06 7.56 1.64 11.57 1.64 11.36 0 21.68-4.5 29.26-11.83-2.44.6-5 .93-7.62.93-16 0-29.23-11.9-31.3-27.34 5.53 5.16 12.93 8.34 21.07 8.46l10.97 8.82-2.22-9.92c3.58-.98 6.9-2.58 9.86-4.66l8.64 6.96-2.76-12.32c.9-1.06 1.77-2.15 2.52-3.33 5.33-2.87 8.96-8.5 8.96-14.98zm-49.37 4.95c-6.7 0-12.14-5.43-12.14-12.13 0-6.7 5.43-12.14 12.13-12.14 6.7 0 12.12 5.43 12.12 12.13 0 6.7-5.43 12.12-12.13 12.12z"/>
  </g>
  <path fill="#000000" d="M281.6 285.5h27.86c3.78 0 7.44.4 11 1.2 3.53.78 6.7 2.1 9.44 3.9 2.76 1.8 4.97 4.2 6.63 7.13 1.65 2.94 2.5 6.53 2.5 10.76 0 5.8-1.66 10.54-4.94 14.2s-7.77 6.13-13.43 7.4l21.4 35.57h-17.2l-18.58-33.97h-10.43v33.97H281.6V285.5zm25.94 34.54c2.04 0 4.07-.15 6.1-.45 2.05-.3 3.88-.88 5.5-1.7 1.63-.84 2.97-2.03 4.03-3.58 1.05-1.54 1.58-3.53 1.58-5.94 0-2.2-.5-3.98-1.47-5.38-.98-1.4-2.23-2.5-3.74-3.34-1.5-.83-3.23-1.4-5.15-1.7-1.93-.3-3.8-.45-5.62-.45h-12.9v22.54h11.66zM349.55 311.32h13.6v54.35h-13.6z"/>
  <path fill="#178FCF" d="M356.23 301.02c2.5 0 4.58-.78 6.28-2.33 1.7-1.55 2.56-3.5 2.56-5.84 0-2.33-.85-4.28-2.55-5.83-1.7-1.54-3.78-2.32-6.27-2.32-2.5 0-4.55.82-6.17 2.45-1.63 1.62-2.44 3.53-2.44 5.7 0 2.2.8 4.1 2.44 5.73 1.62 1.63 3.68 2.44 6.17 2.44z"/>
  <path fill="#000000" d="M418.4 302.26c-1.52-1.96-3.65-3.6-6.4-4.92-2.76-1.33-5.54-2-8.33-2-1.66 0-3.32.22-4.98.64-1.67.4-3.18 1.05-4.54 1.92-1.36.87-2.47 2-3.34 3.4-.87 1.4-1.3 3.07-1.3 5.04 0 1.8.37 3.36 1.13 4.64.75 1.3 1.8 2.38 3.1 3.28 1.33.9 2.94 1.7 4.82 2.38 1.9.68 3.97 1.36 6.23 2.04 2.57.83 5.23 1.77 7.98 2.83 2.76 1.07 5.3 2.46 7.6 4.2 2.3 1.74 4.18 3.93 5.65 6.57 1.48 2.64 2.2 5.92 2.2 9.85 0 4.3-.78 8.06-2.37 11.26-1.58 3.2-3.7 5.87-6.34 8-2.64 2.1-5.74 3.7-9.28 4.74-3.55 1.06-7.3 1.6-11.2 1.6-5.22 0-10.32-.97-15.3-2.9s-9.06-4.77-12.23-8.55l10.2-9.5c1.97 2.7 4.6 4.86 7.87 6.44 3.3 1.6 6.5 2.4 9.68 2.4 1.66 0 3.36-.22 5.1-.63 1.73-.42 3.3-1.12 4.7-2.1 1.4-.98 2.53-2.2 3.4-3.68.86-1.48 1.3-3.3 1.3-5.5 0-2.1-.5-3.87-1.47-5.26-1-1.4-2.3-2.6-3.97-3.63-1.65-1-3.6-1.9-5.88-2.65l-7.13-2.37c-2.43-.76-4.84-1.67-7.26-2.72-2.4-1.06-4.58-2.46-6.5-4.2-1.93-1.73-3.5-3.86-4.7-6.4-1.22-2.52-1.82-5.67-1.82-9.44 0-4.08.85-7.6 2.55-10.54 1.7-2.94 3.92-5.37 6.68-7.3 2.76-1.92 5.9-3.36 9.4-4.3s7.07-1.42 10.7-1.42c4.07 0 8.2.72 12.4 2.16 4.2 1.43 7.83 3.58 10.92 6.45l-9.28 10.2zM439.68 285.5h26.15c4.6 0 8.76.42 12.45 1.25 3.7.83 6.87 2.2 9.52 4.08 2.64 1.88 4.67 4.3 6.1 7.24 1.45 2.95 2.16 6.5 2.16 10.64 0 4.47-.83 8.2-2.5 11.23-1.65 3.02-3.9 5.45-6.73 7.3-2.83 1.85-6.13 3.2-9.9 4.02-3.78.83-7.78 1.24-12 1.24h-11v33.17h-14.26V285.5zm24.22 35c2.34 0 4.57-.18 6.7-.52 2.1-.34 4-.94 5.65-1.8 1.66-.88 2.98-2.07 3.96-3.58 1-1.5 1.48-3.47 1.48-5.9 0-2.32-.5-4.23-1.47-5.7-.97-1.48-2.27-2.63-3.9-3.46-1.62-.83-3.47-1.37-5.54-1.64-2.08-.26-4.2-.4-6.4-.4h-10.42v23h9.96zM236.43 319.93v11.77h16.87v20.38c-4.53 1.9-9.85 2.83-15.96 2.83-4.46 0-8.44-.72-11.95-2.2-3.52-1.47-6.5-3.52-8.95-6.17-2.46-2.64-4.34-5.75-5.66-9.34-1.34-3.6-2-7.54-2-11.84 0-4.15.66-8 2-11.55 1.3-3.54 3.17-6.63 5.6-9.27 2.4-2.65 5.33-4.72 8.77-6.23 3.43-1.5 7.26-2.27 11.5-2.27 4.3 0 8.27.8 11.93 2.38 3.66 1.6 6.5 3.52 8.55 5.78l9.85-10.64c-3.24-3.02-7.53-5.45-12.85-7.3-5.32-1.85-11.2-2.78-17.6-2.78-5.53 0-10.7.8-15.5 2.35l1.92 9.18-8-6.65c-2.28 1.13-4.4 2.43-6.38 3.92l2.74 10.44-7.8-5.8c-2.9 3.18-5.32 6.86-7.13 11.08-2.22 5.17-3.33 10.96-3.33 17.38 0 6.26 1.07 11.98 3.22 17.15 2.14 5.18 5.15 9.64 9 13.37 3.84 3.74 8.45 6.64 13.8 8.72 5.37 2.07 11.3 3.1 17.78 3.1 6.34 0 11.95-.55 16.82-1.64 4.87-1.1 9.34-2.62 13.42-4.58v-41.56h-30.7z"/>
</svg>