<svg xmlns="http://www.w3.org/2000/svg" width="60" height="20" viewBox="0 0 1084 300"><g fill="#009EFF"><path d="M33.091 184.384c0 68.169 38.449 84.67 102.755 84.67h114.47c64.306 0 103.703-16.501 103.703-84.67v-36.971l-75.057 5.935v8.851c0 33.761-6.461 47.329-40.222 47.329h-91.317c-29.542 0-39.438-10.388-41.45-35.603l-72.882 10.459zM556.172 133.016l-47.036 133.041h-81.993l-40.341-124.95 64.271-3.882 19.8 67.097 23.838-68.191 61.461-3.115zm74.558-3.037l25.992 74.343 22.104-76.155 66.859-.862-45.234 138.753h-81.993l-48.115-134.504 60.387-1.575z"/></g><path fill="#F60" d="M1046.274 129.801c-5.016 41.647-25.492 50.217-94.402 53.941l-73.633 3.859c-29.903 1.607-34.402 7.396-34.402 28.294h207.072v50.161H778.241v-79.1c0-28.615 18.648-47.586 64.63-50.802l81.673-5.146c17.455-1.077 29.459-1.901 37.701-3.38l84.029 2.173zm-84.029-2.171"/><g fill="#3BF"><path d="M229.789 30.946h-93.942c-64.307 0-102.755 15.82-102.755 83.986v69.451c0 .529.049 1.062.053 1.585 23.859-3.808 47.719-7.415 73.01-10.893-.32-3.888-.595-8.215-.595-12.878v-25.079c0-28.937 8.102-46.646 45.72-46.646h83.602c5.188 0 10.159.35 14.227 1.002l-19.32-60.528zM288.608 146.712l-9.645 6.491v1.786c25.882-2.314 49.175-4.488 75.057-6.52v-33.537c0-4.118-.152-8.037-.435-11.78l-64.977 43.56z"/><g><path d="M744.742 129.746l31.271-96.211H706.24l-28.32 97.762c22.098-.601 44.375-1.164 66.822-1.551zM572.065 134.245c19.56-.854 39.294-1.191 59.185-1.876l-34.336-98.834h-66.237l-36.476 105.039c20.149-1.14 40.511-2.618 61.063-3.571l8.213-23.823 8.588 23.065zM452.609 141.369L421.355 33.535h-69.774l36.498 112.374c21.238-1.597 42.757-3.154 64.53-4.54z"/></g></g><path fill="#FF8533" d="M845.76 109.466c0-24.115 9.332-29.346 39.555-29.346h47.269c45.656 0 47.587 4.545 47.587 23.518 0 18.271-2.294 22.716-29.903 25.34 32.285.412 64.248 1.138 95.834 1.991 1.171-8.965 1.594-19.305 1.594-31.709 0-48.553-17.363-68.313-84.246-68.313h-93.891c-64.307 0-91.09 15.176-91.09 61.158v26.839h67.292v-9.478z"/><path fill="#F60" d="M348.557 85.068L330.996 30.96h-84.637l33.144 102.114z"/></svg>