<svg height="1016" viewBox="0 0 1693 1016" width="1693" xmlns="http://www.w3.org/2000/svg"><g fill="#fff"><path d="m1587.399 226.773v104.85l104.849-104.85z"/><path d="m1364.162 226.773 104.851 104.85v-104.85z"/><path d="m1364.162 340.157 104.85 104.848v-104.848z"/><path d="m1360.627 448.542h104.85l-104.85-104.848z"/><path d="m1360.627 335.157h104.85l-104.85-104.85z"/><path d="m1587.402.001-.001 104.849 104.849-104.849z"/><path d="m1360.628 113.383v104.849l104.849-104.849z"/><path d="m1364.161 108.385h104.849v-104.847z"/><path d="m1364.162 221.772h104.85v-104.85z"/><path d="m1587.401 448.539h104.849l-104.849-104.849z"/><path d="m1587.399 221.772h104.849l-104.849-104.849z"/><path d="m1360.628.002v104.848l104.849-104.848z"/><path d="m1477.55 335.158h104.85v-104.851z"/><path d="m1477.551 340.157 104.849 104.848v-104.848z"/><path d="m1474.016 448.542h104.85l-104.85-104.848z"/><path d="m1474.017 226.772v104.85l104.85-104.85z"/><path d="m1474.014 221.769h104.849l-104.849-104.849z"/><path d="m1477.55 108.385h104.848v-104.847z"/><path d="m1477.554 113.386 104.848 104.848v-104.848z"/><path d="m1474.017.002v104.848l104.849-104.848z"/><path d="m1477.55 793.7 104.847 104.853v-104.853z"/><path d="m1364.165 793.704 104.848 104.847v-104.847z"/><path d="m1364.165 907.086 104.848 104.849v-104.849z"/><path d="m1474.015 907.086v104.85l104.849-104.85z"/><path d="m1477.55 1015.471h104.851v-104.849z"/><path d="m1474.017 902.088h104.847l-104.847-104.848z"/><path d="m1360.63 902.086h104.847l-104.847-104.849z"/><path d="m1474.015 788.702h104.849l-104.849-104.851z"/><path d="m1477.55 566.932 104.849 104.849v-104.849z"/><path d="m1474.015 675.313h104.849l-104.849-104.85z"/><path d="m1360.63 680.313v104.849l104.847-104.849z"/><path d="m1364.163 675.315h104.85v-104.849z"/><path d="m1364.163 788.702h104.85v-104.85z"/><path d="m1477.548 680.315 104.851 104.85v-104.85z"/><path d="m1587.403 902.086h104.848l-104.848-104.849z"/><path d="m1587.403 907.086v104.85l104.848-104.85z"/><path d="m1587.405 675.315h104.848l-104.848-104.849z"/><path d="m1587.405 680.317v104.849l104.848-104.849z"/><path d="m116.92 226.771 104.848 104.853v-104.853z"/><path d="m3.535 226.774 104.848 104.848v-104.848z"/><path d="m3.535 340.157 104.848 104.849v-104.849z"/><path d="m113.385 340.158v104.849l104.849-104.849z"/><path d="m116.92 448.543h104.851v-104.85z"/><path d="m113.387 335.16h104.847l-104.847-104.849z"/><path d="m0 335.157h104.848l-104.848-104.849z"/><path d="m113.385 221.773h104.849l-104.849-104.851z"/><path d="m116.92.002 104.849 104.85v-104.85z"/><path d="m113.385 108.383h104.849l-104.849-104.849z"/><path d="m0 113.383v104.849l104.848-104.849z"/><path d="m3.533 108.385h104.85v-104.848z"/><path d="m3.533 221.772h104.85v-104.849z"/><path d="m116.918 113.386 104.851 104.85v-104.85z"/><path d="m226.773 335.157h104.848l-104.848-104.849z"/><path d="m226.773 340.158v104.849l104.848-104.849z"/><path d="m226.775 108.386h104.848l-104.848-104.849z"/><path d="m226.775 113.387v104.849l104.848-104.849z"/><path d="m113.384 793.702v104.848l104.852-104.848z"/><path d="m3.535 907.085 104.848 104.848v-104.848z"/><path d="m113.387 1015.471h104.849l-104.849-104.849z"/><path d="m0 788.7h104.849l-104.849-104.849z"/><path d="m116.922 907.085 104.849 104.85v-104.85z"/><path d="m116.922 902.085h104.849v-104.85z"/><path d="m226.773 793.7v104.848l104.85-104.848z"/><path d="m116.919 680.315 104.849 104.849v-104.849z"/><path d="m116.919 675.313h104.849v-104.849z"/><path d="m113.387 566.928v104.85l104.849-104.85z"/><path d="m3.533 675.313h104.85v-104.849z"/><path d="m3.534 680.315 104.85 104.85v-104.85z"/><path d="m226.773 788.7h104.849l-104.849-104.85z"/><path d="m113.384 788.7h104.85l-104.85-104.849z"/><path d="m230.309 902.085h104.849v-104.849z"/><path d="m3.539 793.698 104.85 104.849v-104.849z"/><path d="m226.773 907.086v104.849l104.849-104.849z"/><path d="m226.777 675.313h104.85l-104.85-104.849z"/><path d="m566.929 226.773v104.849l104.849-104.849z"/><path d="m457.077 226.773 104.851 104.849v-104.849z"/><path d="m457.077 340.157 104.849 104.849v-104.849z"/><path d="m566.929 448.542h104.849l-104.849-104.849z"/><path d="m570.464 340.157 104.849 104.849v-104.849z"/><path d="m570.464 335.155h104.849v-104.849z"/><path d="m453.542 335.157h104.849l-104.849-104.851z"/><path d="m570.461 113.387 104.849 104.848v-104.848z"/><path d="m570.461 108.385h104.849v-104.849z"/><path d="m566.929 0v104.849l104.849-104.849z"/><path d="m453.544 113.383v104.848l104.849-104.848z"/><path d="m457.077 108.385h104.849v-104.849z"/><path d="m457.077 221.771h104.849v-104.849z"/><path d="m683.851 226.773 104.849 104.849v-104.849z"/><path d="m683.851 221.771h104.849v-104.849z"/><path d="m566.929 221.771h104.849l-104.849-104.849z"/><path d="m680.315 335.157h104.85l-104.85-104.851z"/><path d="m680.315 340.157v104.849l104.85-104.849z"/><path d="m680.317 108.387h104.85l-104.85-104.851z"/><path d="m680.317 113.387v104.848l104.85-104.848z"/><path d="m566.928 793.702v104.848l104.849-104.848z"/><path d="m566.928 1015.469h104.849l-104.849-104.847z"/><path d="m570.463 907.085 104.849 104.849v-104.849z"/><path d="m570.463 902.085h104.849v-104.85z"/><path d="m570.46 680.315 104.85 104.849v-104.849z"/><path d="m453.543 675.311h104.85l-104.85-104.848z"/><path d="m453.543 680.315v104.849l104.85-104.849z"/><path d="m457.076 788.698h104.849v-104.848z"/><path d="m457.076 793.7 104.849 104.849v-104.849z"/><path d="m566.928 788.7h104.849l-104.849-104.849z"/><path d="m683.852 675.313h104.849v-104.849z"/><path d="m683.851 680.315 104.848 104.849v-104.849z"/><path d="m680.316 788.7h104.85l-104.85-104.849z"/><path d="m680.316 793.7v104.849l104.85-104.849z"/><path d="m1020.47 793.702v104.849l104.848-104.849z"/><path d="m910.619 793.702 104.85 104.849v-104.849z"/><path d="m910.619 907.086 104.849 104.848v-104.848z"/><path d="m907.084 1015.471h104.85l-104.85-104.849z"/><path d="m1024.005 907.086 104.848 104.849v-104.849z"/><path d="m1024.005 902.085h104.848v-104.849z"/><path d="m907.084 902.086h104.849l-104.849-104.85z"/><path d="m907.084 680.311v104.85l104.85-104.85z"/><path d="m910.619 788.7h104.849v-104.849z"/><path d="m1137.391 793.702 104.851 104.849v-104.849z"/><path d="m1137.391 788.7h104.851v-104.849z"/><path d="m1137.391 1015.467h104.851v-104.847z"/><path d="m1020.47 788.7h104.848l-104.848-104.849z"/><path d="m1133.855 902.086h104.852l-104.852-104.85z"/><path d="m1133.855 907.086v104.849l104.852-104.849z"/><path d="m1137.391 566.93 104.851 104.849v-104.849z"/><path d="m1133.858 675.315h104.849l-104.849-104.85z"/><path d="m1133.858 680.315v104.85l104.849-104.85z"/><path d="m907.086 675.313h104.849l-104.849-104.849z"/><path d="m1020.471 226.775v104.849l104.851-104.849z"/><path d="m910.622 226.775 104.849 104.849v-104.849z"/><path d="m910.623 448.544h104.85v-104.849z"/><path d="m1020.471 448.544h104.851l-104.851-104.849z"/><path d="m907.087 340.159v104.849l104.848-104.849z"/><path d="m1024.008 340.158 104.849 104.85v-104.85z"/><path d="m1024.008 335.157h104.849v-104.848z"/><path d="m907.087 335.158h104.848l-104.848-104.849z"/><path d="m1024.004 113.388 104.848 104.85v-104.85z"/><path d="m1024.004 108.387h104.848v-104.849z"/><path d="m1020.473.002v104.849l104.849-104.849z"/><path d="m907.087 113.385v104.848l104.848-104.848z"/><path d="m910.619 108.387h104.85v-104.849z"/><path d="m910.619 221.773h104.852v-104.849z"/><path d="m1137.394 226.775 104.85 104.849v-104.849z"/><path d="m1137.393 221.773h104.851v-104.849z"/><path d="m1020.471 221.773h104.849l-104.849-104.849z"/><path d="m1133.859 335.158h104.85l-104.85-104.849z"/><path d="m1133.859 340.159v104.849l104.85-104.849z"/><path d="m1133.861 108.388h104.849l-104.849-104.85z"/><path d="m1133.861 113.389v104.849l104.849-104.849z"/><path d="m907.087.002v104.849l104.848-104.849z"/></g></svg>