<svg width="61" height="58" viewBox="0 0 61 58" fill="none" xmlns="http://www.w3.org/2000/svg">
<g clip-path="url(#clip0)">
<path d="M50.1 5H47.6V2.5C47.6 1.1 46.5 0 45.1 0C43.7 0 42.6 1.1 42.6 2.5V5H17.5V2.5C17.5 1.1 16.4 0 15 0C13.6 0 12.5 1.1 12.5 2.5V5H10C4.5 5 0 9.5 0 15V47.1C0 52.6 4.5 57.1 10 57.1H50.1C55.6 57.1 60.1 52.6 60.1 47.1V15C60.1 9.5 55.7 5 50.1 5ZM55.1 47.1C55.1 49.9 52.9 52.1 50.1 52.1H10C7.2 52.1 5 49.9 5 47.1V25.1H55.1V47.1ZM55.1 20H5V15C5 12.2 7.2 10 10 10H12.5V12.5C12.5 13.9 13.6 15 15 15C16.4 15 17.5 13.9 17.5 12.5V10H42.6V12.5C42.6 13.9 43.7 15 45.1 15C46.5 15 47.6 13.9 47.6 12.5V10H50.1C52.9 10 55.1 12.2 55.1 15V20Z" fill="black"/>
<path d="M25.8 44.9C26.8 45.9 28.4 45.9 29.3 44.9L39.3 34.9C40.3 33.9 40.3 32.3 39.3 31.4C38.3 30.4 36.7 30.4 35.8 31.4L27.5 39.7L24.3 36.5C23.3 35.5 21.7 35.5 20.8 36.5C19.9 37.5 19.8 39.1 20.8 40L25.8 44.9Z" fill="black"/>
</g>
<defs>
<clipPath id="clip0">
<rect width="60.1" height="57.1" fill="white"/>
</clipPath>
</defs>
</svg>
