<svg height="86" viewBox="0 0 120 86" width="120" xmlns="http://www.w3.org/2000/svg"><g fill-rule="evenodd"><path d="m90.1099127 35.9323179c.8284271 0 1.5.6715729 1.5 1.5 0 .0654148-.0042791.1307595-.0128098.1956156l-1.1106015 8.4434782c-.0981747.7463845-.7343768 1.3043845-1.4871902 1.3043845h-8.6790609c-.8284271 0-1.5-.6715729-1.5-1.5 0-.0654148.0042791-.1307595.0128099-.1956156l1.1106015-8.4434782c.0981747-.7463845.7343768-1.3043845 1.4871901-1.3043845zm-56.9423697 0c.8284272 0 1.5.6715729 1.5 1.5 0 .0652517-.0042578.1304339-.0127462.1951312l-1.107804 8.4434782c-.0979558.7466008-.7342545 1.3048689-1.4872538 1.3048689h-30.50837045c-.82842713 0-1.5-.6715729-1.5-1.5 0-.0652517.00425778-.1304339.01274621-.1951312l1.10780401-8.4434782c.09795576-.7466008.73425448-1.3048689 1.48725379-1.3048689zm39.3841601 0c.8284271 0 1.5.6715729 1.5 1.5 0 .0652517-.0042578.1304339-.0127462.1951312l-1.1078041 8.4434782c-.0979557.7466008-.7342544 1.3048689-1.4872537 1.3048689h-30.5083705c-.8284271 0-1.5-.6715729-1.5-1.5 0-.0652517.0042578-.1304339.0127462-.1951312l1.107804-8.4434782c.0979558-.7466008.7342545-1.3048689 1.4872538-1.3048689zm41.8456699-17.9826087c.828427 0 1.5.6715729 1.5 1.5 0 .0652517-.004258.1304339-.012746.1951312l-1.107804 8.4434782c-.097956.7466008-.734255 1.3048689-1.487254 1.3048689h-30.5083704c-.8284271 0-1.5-.6715729-1.5-1.5 0-.0652517.0042578-.1304339.0127462-.1951312l1.1078041-8.4434782c.0979557-.7466008.7342544-1.3048689 1.4872537-1.3048689zm-78.76832 0c.8284272 0 1.5.6715729 1.5 1.5 0 .0652517-.0042578.1304339-.0127462.1951312l-1.107804 8.4434782c-.0979557.7466008-.7342545 1.3048689-1.4872538 1.3048689h-30.50837045c-.82842713 0-1.5-.6715729-1.5-1.5 0-.0652517.00425778-.1304339.01274621-.1951312l1.10780401-8.4434782c.09795576-.7466008.73425448-1.3048689 1.48725379-1.3048689zm39.3841601 0c.8284271 0 1.5.6715729 1.5 1.5 0 .0652517-.0042578.1304339-.0127462.1951312l-1.1078041 8.4434782c-.0979557.7466008-.7342544 1.3048689-1.4872537 1.3048689h-30.5083705c-.8284271 0-1.5-.6715729-1.5-1.5 0-.0652517.0042578-.1304339.0127462-.1951312l1.107804-8.4434782c.0979558-.7466008.7342545-1.3048689 1.4872538-1.3048689zm41.4354179-17.57391302c.828428 0 1.5.67157287 1.5 1.5 0 .06525172-.004257.13043391-.012746.19513116l-1.107804 8.44347826c-.097956.7466007-.734254 1.3048688-1.487254 1.3048688h-30.50837c-.8284272 0-1.5-.6715728-1.5-1.5 0-.0652517.0042578-.1304339.0127462-.1951311l1.107804-8.44347828c.0979558-.74660072.7342545-1.30486884 1.4872538-1.30486884zm-78.7683196 0c.8284271 0 1.5.67157287 1.5 1.5 0 .06525172-.0042578.13043391-.0127462.19513116l-1.1078041 8.44347826c-.0979557.7466007-.7342544 1.3048688-1.4872537 1.3048688h-30.50837052c-.82842712 0-1.5-.6715728-1.5-1.5 0-.0652517.00425779-.1304339.01274622-.1951311l1.10780401-8.44347828c.09795575-.74660072.73425447-1.30486884 1.48725379-1.30486884zm39.38416 0c.8284271 0 1.5.67157287 1.5 1.5 0 .06525172-.0042578.13043391-.0127462.19513116l-1.107804 8.44347826c-.0979558.7466007-.7342545 1.3048688-1.4872538 1.3048688h-30.5083705c-.8284271 0-1.5-.6715728-1.5-1.5 0-.0652517.0042578-.1304339.0127462-.1951311l1.1078041-8.44347828c.0979557-.74660072.7342544-1.30486884 1.4872537-1.30486884z" transform="translate(2)"/><g fill-rule="nonzero"><path d="m5.967 67 .221-1.404h-3.731l.403-2.548h3.419l.221-1.391h-3.419l.351-2.223h3.627l.221-1.404h-5.291l-1.417 8.97zm3.055 0 .572-3.64h.741l1.417 3.64h1.937l-1.677-3.848c1.313-.403 2.262-1.144 2.262-2.899 0-1.43-1.092-2.223-2.717-2.223h-2.782l-1.417 8.97zm1.612-4.966h-.832l.416-2.678h.832c.91 0 1.495.325 1.495 1.105 0 1.118-.767 1.573-1.911 1.573zm8.515 4.966.221-1.404h-2.964l1.196-7.566h-1.651l-1.417 8.97zm2.093 0 1.053-2.067h3.302l.403 2.067h1.807l-1.911-8.983h-1.625l-4.745 8.983zm4.173-3.419h-2.496l1.833-3.627zm4.901 3.419.702-4.407c.169-1.066.325-2.21.325-2.21l3.185 6.617h1.677l1.417-8.97h-1.625l-.702 4.42c-.169 1.066-.299 2.119-.299 2.119l-3.12-6.539h-1.768l-1.417 8.97zm11.661.156c2.262 0 3.549-1.196 3.926-1.495l.572-3.601h-3.627l-.208 1.313h2.015l-.26 1.651s-.624.676-2.171.676c-1.352 0-2.288-.962-2.288-2.6 0-2.314 1.495-3.77 3.25-3.77 1.235 0 1.859.611 2.197 1.131l1.261-1.001c-.234-.325-1.04-1.56-3.237-1.56-2.665 0-5.213 2.067-5.213 5.408 0 2.496 1.625 3.848 3.783 3.848zm13.221-.156.221-1.404h-3.731l.403-2.548h3.419l.221-1.391h-3.419l.351-2.223h3.627l.221-1.404h-5.291l-1.417 8.97zm5.369.156c1.69 0 2.717-.728 3.289-1.274l-.377-1.274c-.598.572-1.456 1.092-2.587 1.092-1.469 0-2.353-1.027-2.353-2.613 0-2.457 1.599-3.731 3.237-3.731 1.222 0 2.08.689 2.262 1.027l.793-1.378c-.273-.364-1.118-1.105-2.795-1.105-2.782 0-5.239 2.132-5.239 5.369 0 2.392 1.547 3.887 3.77 3.887zm7.696 0c2.769 0 5.265-2.08 5.265-5.369 0-2.418-1.599-3.887-3.796-3.887-2.782 0-5.278 2.08-5.278 5.369 0 2.418 1.612 3.887 3.809 3.887zm.234-1.482c-1.352 0-2.301-1.001-2.301-2.613 0-2.236 1.534-3.692 3.302-3.692 1.365 0 2.301.988 2.301 2.587 0 2.236-1.521 3.718-3.302 3.718zm7.813 1.482c2.119 0 3.536-1.326 3.536-3.185 0-.871-.403-1.521-1.352-1.924l-1.3-.611c-.377-.182-.806-.403-.806-.975 0-.728.65-1.144 1.456-1.144.663 0 1.261.377 1.742.897l.962-1.209c-.442-.546-1.248-1.079-2.587-1.079-1.703 0-3.263 1.248-3.263 2.925 0 1.287.858 1.729 1.235 1.885.429.182.832.377 1.248.559.624.273.962.507.962 1.053 0 .884-.624 1.378-1.521 1.378-.767 0-1.495-.416-2.067-1.183l-.975 1.222c.468.676 1.378 1.391 2.73 1.391zm7.657-.156.585-3.692 3.796-5.278h-1.846l-2.548 3.848-1.352-3.848h-1.833l2.119 5.278-.585 3.692zm5.733.156c2.119 0 3.536-1.326 3.536-3.185 0-.871-.403-1.521-1.352-1.924l-1.3-.611c-.377-.182-.806-.403-.806-.975 0-.728.65-1.144 1.456-1.144.663 0 1.261.377 1.742.897l.962-1.209c-.442-.546-1.248-1.079-2.587-1.079-1.703 0-3.263 1.248-3.263 2.925 0 1.287.858 1.729 1.235 1.885.429.182.832.377 1.248.559.624.273.962.507.962 1.053 0 .884-.624 1.378-1.521 1.378-.767 0-1.495-.416-2.067-1.183l-.975 1.222c.468.676 1.378 1.391 2.73 1.391zm7.358-.156 1.209-7.605h2.327l.221-1.365h-6.305l-.221 1.365h2.34l-1.209 7.605zm8.697 0 .221-1.404h-3.731l.403-2.548h3.419l.221-1.391h-3.419l.351-2.223h3.627l.221-1.404h-5.291l-1.417 8.97zm6.552.039 3.276-6.812h.026l-.546 6.773h1.638l.637-8.97h-2.106l-3.068 6.383h-.013l-.975-6.383h-2.288l-2.236 8.97h1.586l1.651-6.773h.039l1.092 6.812z"/><path d="m38.236 85 .572-3.64h3.211l.221-1.391h-3.211l.403-2.522h3.406l.221-1.417h-5.07l-1.417 8.97zm8.645.156c2.769 0 5.265-2.08 5.265-5.369 0-2.418-1.599-3.887-3.796-3.887-2.782 0-5.278 2.08-5.278 5.369 0 2.418 1.612 3.887 3.809 3.887zm.234-1.482c-1.352 0-2.301-1.001-2.301-2.613 0-2.236 1.534-3.692 3.302-3.692 1.365 0 2.301.988 2.301 2.587 0 2.236-1.521 3.718-3.302 3.718zm8.944 1.482c1.196 0 2.158-.39 2.834-1.079.715-.715 1.014-1.586 1.209-2.782l.832-5.265h-1.664l-.832 5.213c-.104.689-.234 1.3-.637 1.755-.364.416-.871.676-1.508.676s-1.066-.26-1.3-.676c-.26-.455-.182-1.066-.078-1.755l.832-5.213h-1.677l-.832 5.265c-.195 1.196-.169 2.067.325 2.782.468.689 1.3 1.079 2.496 1.079zm6.747-.156.702-4.407c.169-1.066.325-2.21.325-2.21l3.185 6.617h1.677l1.417-8.97h-1.625l-.702 4.42c-.169 1.066-.299 2.119-.299 2.119l-3.12-6.539h-1.768l-1.417 8.97zm10.426 0c2.99 0 5.382-2.132 5.382-5.213 0-2.457-1.547-3.757-3.965-3.757h-2.756l-1.417 8.97zm.286-1.43h-1.157l.975-6.123h1.157c1.638 0 2.392.936 2.392 2.509 0 1.976-1.339 3.614-3.367 3.614zm6.331 1.43 1.053-2.067h3.302l.403 2.067h1.807l-1.911-8.983h-1.625l-4.745 8.983zm4.173-3.419h-2.496l1.833-3.627zm5.486 3.419 1.209-7.605h2.327l.221-1.365h-6.305l-.221 1.365h2.34l-1.209 7.605zm4.966 0 1.417-8.97h-1.664l-1.417 8.97zm5.837.156c2.769 0 5.265-2.08 5.265-5.369 0-2.418-1.599-3.887-3.796-3.887-2.782 0-5.278 2.08-5.278 5.369 0 2.418 1.612 3.887 3.809 3.887zm.234-1.482c-1.352 0-2.301-1.001-2.301-2.613 0-2.236 1.534-3.692 3.302-3.692 1.365 0 2.301.988 2.301 2.587 0 2.236-1.521 3.718-3.302 3.718zm7.202 1.326.702-4.407c.169-1.066.325-2.21.325-2.21l3.185 6.617h1.677l1.417-8.97h-1.625l-.702 4.42c-.169 1.066-.299 2.119-.299 2.119l-3.12-6.539h-1.768l-1.417 8.97z"/></g></g></svg>