<?xml version="1.0" encoding="UTF-8" standalone="no"?>
<svg
   xmlns:dc="http://purl.org/dc/elements/1.1/"
   xmlns:cc="http://creativecommons.org/ns#"
   xmlns:rdf="http://www.w3.org/1999/02/22-rdf-syntax-ns#"
   xmlns:svg="http://www.w3.org/2000/svg"
   xmlns="http://www.w3.org/2000/svg"
   xmlns:sodipodi="http://sodipodi.sourceforge.net/DTD/sodipodi-0.dtd"
   xmlns:inkscape="http://www.inkscape.org/namespaces/inkscape"
   height="138.34918"
   viewBox="0 0 313.09277 138.34918"
   width="313.09277"
   version="1.1"
   id="svg12"
   sodipodi:docname="eef-header-logo.svg"
   inkscape:version="1.0.1 (c497b03c, 2020-09-10)">
  <metadata
     id="metadata18">
    <rdf:RDF>
      <cc:Work
         rdf:about="">
        <dc:format>image/svg+xml</dc:format>
        <dc:type
           rdf:resource="http://purl.org/dc/dcmitype/StillImage" />
        <dc:title></dc:title>
      </cc:Work>
    </rdf:RDF>
  </metadata>
  <defs
     id="defs16">
    <clipPath
       clipPathUnits="userSpaceOnUse"
       id="clipPath30">
      <rect
         style="fill:#0000ff;fill-rule:evenodd"
         id="rect32"
         width="315.65289"
         height="215.66083"
         x="-0.84739029"
         y="0" />
    </clipPath>
  </defs>
  <sodipodi:namedview
     pagecolor="#ffffff"
     bordercolor="#666666"
     borderopacity="1"
     objecttolerance="10"
     gridtolerance="10"
     guidetolerance="10"
     inkscape:pageopacity="0"
     inkscape:pageshadow="2"
     inkscape:window-width="1302"
     inkscape:window-height="760"
     id="namedview14"
     showgrid="false"
     inkscape:zoom="2.3601875"
     inkscape:cx="135.96785"
     inkscape:cy="76.127989"
     inkscape:window-x="0"
     inkscape:window-y="23"
     inkscape:window-maximized="0"
     inkscape:current-layer="svg12"
     inkscape:document-rotation="0"
     fit-margin-top="0"
     fit-margin-left="0"
     fit-margin-right="0"
     fit-margin-bottom="0" />
  <path
     d="m 164.06092,285.08387 c 5.6268,0 9.72205,4.14347 9.72205,10.96368 0,9.27697 -6.39258,15.14382 -13.48435,15.14382 -5.6268,0 -9.75534,-4.14346 -9.75534,-10.96368 0,-9.27696 6.39258,-15.14382 13.51764,-15.14382 z m -117.896468,0.36668 -2.13086,14.7038 c -0.266357,1.9434 -0.466125,3.66679 0.199768,4.95016 0.599305,1.17337 1.698029,1.90673 3.329469,1.90673 1.631439,0 2.929932,-0.73336 3.862183,-1.90673 0.967626,-1.20317 1.320732,-2.79306 1.580562,-4.58841 l 0.05088,-0.36175 2.13086,-14.7038 h 4.261719 l -2.130859,14.85047 c -0.499421,3.37345 -1.265198,5.83019 -3.096406,7.84692 -1.731323,1.9434 -4.19513,3.04343 -7.258241,3.04343 -3.063111,0 -5.19397,-1.10003 -6.392579,-3.04343 -1.216536,-1.93916 -1.324892,-4.28515 -0.887444,-7.46171 l 0.05508,-0.38521 2.13086,-14.85047 z m -18.944675,-0.36668 c 5.626802,0 9.722048,4.14347 9.722048,10.96368 0,9.27697 -6.392579,15.14382 -13.484347,15.14382 -5.626801,0 -9.755342,-4.14346 -9.755342,-10.96368 0,-9.27696 6.392579,-15.14382 13.517641,-15.14382 z m 156.118763,0.36668 7.99073,18.44392 0.004,-0.0341 c 0.0369,-0.32607 0.33527,-2.94087 0.72166,-5.66107 l 0.0403,-0.28169 1.79792,-12.46707 h 4.16183 l -3.62912,25.30081 h -4.29501 l -8.1572,-18.66393 c 0,0 -0.33019,2.66675 -0.71542,5.41064 l -0.11695,0.8229 -1.79791,12.43039 h -4.16183 l 3.62912,-25.30081 z m -34.36011,0 -3.62912,25.3008 h -4.26172 l 3.62912,-25.3008 z m -6.72553,0 -0.56601,3.85012 h -5.95974 l -3.09641,21.45068 h -4.19513 l 3.09641,-21.45068 h -5.99305 l 0.56601,-3.85012 z m -22.44061,-0.0367 4.89432,25.33748 h -4.62796 l -1.03214,-5.83019 h -8.45685 l -2.69687,5.83019 h -4.3949 l 12.15256,-25.33748 z m -25.23737,0.0367 c 6.19281,0 10.15488,3.66678 10.15488,10.597 0,8.56959 -5.95723,14.53625 -13.465824,14.70033 l -0.318176,0.003 h -7.058473 l 3.629121,-25.30081 z m -26.336093,0 7.990723,18.44392 c 0,0 0.292629,-2.61044 0.68585,-5.41423 l 0.07993,-0.56263 1.797913,-12.46706 h 4.161835 l -3.62912,25.3008 h -4.295016 l -8.157197,-18.66392 c 0,0 -0.330196,2.66675 -0.715423,5.41064 l -0.116945,0.82289 -1.797912,12.43039 h -4.161836 l 3.629121,-25.3008 z m -54.569986,0 -0.566009,3.99679 H 4.3796247 l -1.0321351,7.11356 h 8.2237864 l -0.566009,3.92346 H 2.78148 l -1.4649661,10.26699 h -4.2617194 l 3.62912053,-25.3008 z m 149.792779,3.77679 c -4.52808,0 -8.45685,4.1068 -8.45685,10.41366 0,4.54682 2.43051,7.37024 5.89316,7.37024 4.56137,0 8.45685,-4.18014 8.45685,-10.48701 0,-4.51014 -2.39722,-7.29689 -5.89316,-7.29689 z m -136.841147,0 c -4.528077,0 -8.456849,4.1068 -8.456849,10.41366 0,4.54682 2.430511,7.37024 5.893158,7.37024 4.561372,0 8.45685,-4.18014 8.45685,-10.48701 0,-4.51014 -2.397217,-7.29689 -5.893159,-7.29689 z m 67.554911,0.22 h -2.963226 l -2.497102,17.27056 h 2.963227 c 5.193967,0 8.623317,-4.62015 8.623317,-10.19367 0,-4.4368 -1.93109,-7.07689 -6.126216,-7.07689 z m 22.706976,1.43005 -4.69455,10.23032 h 6.39257 z m 83.34066,-55.75957 c 3.31051,0 5.34869,1.40149 6.50404,2.88431 l 0.12043,0.15913 -2.46337,3.4101 c -1.23169,-1.46672 -2.76297,-2.53009 -4.4607,-2.53009 -2.06391,0 -3.72835,1.17338 -3.72835,3.22678 0,1.54005 1.00094,2.17802 1.93156,2.67932 l 0.13235,0.0708 3.32888,1.72338 c 2.43008,1.1367 3.46203,2.97009 3.46203,5.42684 0,5.24351 -3.62848,8.98363 -9.05455,8.98363 -3.34663,0 -5.63565,-1.88453 -6.86704,-3.73251 l -0.12361,-0.19095 2.49666,-3.44678 c 1.46471,2.1634 3.32888,3.33677 5.29292,3.33677 2.29693,0 3.89479,-1.39338 3.89479,-3.88679 0,-1.54005 -0.86551,-2.20007 -2.46337,-2.9701 -1.06524,-0.51335 -2.09719,-1.06337 -3.19572,-1.57672 -0.96538,-0.44001 -3.16244,-1.68672 -3.16244,-5.31683 0,-4.73015 3.99466,-8.25027 8.35549,-8.25027 z m -40.77878,-0.0733 c 4.17156,0 6.33264,1.97233 7.09357,3.02623 l 0.0635,0.0905 -2.03062,3.88679 c -0.46604,-0.95336 -2.6631,-2.89676 -5.79225,-2.89676 -4.19439,0 -8.28891,3.59345 -8.28891,10.52368 0,4.47347 2.26364,7.37023 6.02527,7.37023 2.78028,0 4.91631,-1.35172 6.43752,-2.88728 l 0.18695,-0.19282 0.96538,3.59345 c -1.46471,1.54005 -4.09452,3.59345 -8.42207,3.59345 -5.69238,0 -9.65375,-4.21681 -9.65375,-10.96368 0,-9.1303 6.29158,-15.14382 13.41539,-15.14382 z m 75.06624,0.0733 c 3.31052,0 5.34869,1.40149 6.50405,2.88431 l 0.12042,0.15913 -2.46337,3.4101 c -1.23168,-1.46672 -2.76297,-2.53009 -4.4607,-2.53009 -2.0639,0 -3.72834,1.17338 -3.72834,3.22678 0,1.54005 1.00093,2.17802 1.93155,2.67932 l 0.13235,0.0708 3.32888,1.72338 c 2.43008,1.1367 3.46204,2.97009 3.46204,5.42684 0,5.24351 -3.62848,8.98363 -9.05456,8.98363 -3.34663,0 -5.63564,-1.88453 -6.86703,-3.73251 l -0.12361,-0.19095 2.49666,-3.44678 c 1.4647,2.1634 3.32888,3.33677 5.29292,3.33677 2.29692,0 3.89478,-1.39338 3.89478,-3.88679 0,-1.54005 -0.8655,-2.20007 -2.46337,-2.9701 -1.06524,-0.51335 -2.09719,-1.06337 -3.19572,-1.57672 -0.96538,-0.44001 -3.16244,-1.68672 -3.16244,-5.31683 0,-4.73015 3.99466,-8.25027 8.35549,-8.25027 z m -55.35927,-0.0733 c 5.6258,0 9.72033,4.14347 9.72033,10.96368 0,9.27697 -6.39145,15.14382 -13.48197,15.14382 -5.6258,0 -9.75362,-4.14346 -9.75362,-10.96368 0,-9.27696 6.39145,-15.14382 13.51526,-15.14382 z m -67.40982,0 c 5.50611,0 7.60027,3.33679 8.24865,4.3382 l 0.0403,0.0619 -3.22901,2.82343 c -0.86551,-1.46672 -2.46338,-3.19011 -5.62581,-3.19011 -4.49399,0 -8.3222,4.1068 -8.3222,10.63368 0,4.62014 2.39679,7.33357 5.85883,7.33357 3.52121,0 5.17497,-1.50655 5.499,-1.84134 l 0.0602,-0.0654 0.66577,-4.65681 h -5.15976 l 0.53262,-3.70346 h 9.28757 l -1.4647,10.15699 c -0.96538,0.84336 -4.26097,4.21681 -10.05322,4.21681 -5.52594,0 -9.68704,-3.81346 -9.68704,-10.85368 0,-9.42364 6.5246,-15.25382 13.34881,-15.25382 z m 173.53451,0.36668 2.49666,18.00391 h 0.0333 l 7.85616,-18.00391 h 5.39278 l -1.63115,25.3008 h -4.19439 l 1.39813,-19.10394 h -0.0666 l -8.38877,19.21395 h -3.29559 l -2.79626,-19.21395 h -0.0999 l -4.22768,19.10394 h -4.06123 l 5.72567,-25.3008 z m -239.612777,0 -3.06257,21.34067 h 7.589846 L 49.62449,260.712 H 37.806966 l 3.628479,-25.3008 z m 99.633377,0 -0.56591,3.96013 h -9.28758 l -0.89879,6.27019 h 8.75495 l -0.56591,3.92346 h -8.75495 l -1.03196,7.18689 h 9.55389 l -0.56591,3.96013 h -13.81485 l 3.62848,-25.3008 z m -115.112669,0 c 4.1611,0 6.957359,2.23674 6.957359,6.27019 0,4.83766 -2.32088,6.94375 -5.564475,8.09793 l -0.227776,0.079 4.294255,10.85367 H 30.683163 L 27.054683,250.445 h -1.897461 l -1.464707,10.26699 h -4.260967 l 3.628479,-25.3008 z m -10.952016,0 -0.565909,3.96013 H 9.3783307 l -0.898798,6.27019 h 8.7549543 l -0.565909,3.92346 H 7.9136237 l -1.031953,7.18689 H 16.435556 L 15.869647,260.712 H 2.0547945 l 3.6284792,-25.3008 z m 255.524825,0 -0.56591,3.96013 h -9.28757 l -0.8988,6.27019 h 8.75495 l -0.56591,3.92346 h -8.75495 l -1.03195,7.18689 h 9.55388 l -0.56591,3.96013 h -13.81485 l 3.62848,-25.3008 z m -16.01191,0 -0.56591,3.85012 h -5.9587 l -3.09586,21.45068 h -4.19438 l 3.09585,-21.45068 h -5.99198 l 0.56591,-3.85012 z m -191.843353,-0.0367 4.893453,25.33747 h -4.627143 l -1.031953,-5.83018 h -8.455355 l -2.696393,5.83018 H 50.589865 L 62.740277,235.3745 Z m 145.205743,0.0367 3.46203,10.85367 6.52461,-10.85367 h 4.72701 l -9.72033,14.88714 -1.498,10.41366 h -4.26096 l 1.49799,-10.41366 -5.42607,-14.88714 z m -129.892895,0 7.989312,18.44392 c 0,0 0.292577,-2.61044 0.685728,-5.41423 l 0.07991,-0.56263 1.797595,-12.46706 h 4.1611 L 93.299391,260.712 H 89.005136 L 80.84938,242.04805 c 0,0 -0.330137,2.66676 -0.715297,5.41064 l -0.116923,0.8229 -1.797595,12.43039 h -4.1611 l 3.628479,-25.3008 z m 96.337785,3.77679 c -4.52728,0 -8.45536,4.10679 -8.45536,10.41366 0,4.54682 2.43009,7.37024 5.89212,7.37024 4.56057,0 8.45536,-4.18014 8.45536,-10.48701 0,-4.51015 -2.3968,-7.29689 -5.89212,-7.29689 z m -114.580048,1.65004 -4.69372,10.23033 h 6.391449 z M 28.885567,239.1513 h -2.130483 l -1.065241,7.55357 h 2.130483 c 2.929414,0 4.893453,-1.28338 4.893453,-4.43681 0,-2.20006 -1.497996,-3.11676 -3.828212,-3.11676 z M 241.83109,176.88908 c 1.38071,0 2.5,1.21757 2.5,2.71953 0,0.11878 -0.007,0.23743 -0.0214,0.3552 l -3.22249,26.60885 c -0.16385,1.35296 -1.22409,2.36432 -2.47858,2.36432 h -25.13808 c -1.38071,0 -2.5,-1.21757 -2.5,-2.71953 0,-0.11879 0.007,-0.23743 0.0214,-0.3552 l 3.22249,-26.60885 c 0.16385,-1.35296 1.22408,-2.36432 2.47858,-2.36432 z m -146.82733,0 c 1.38071,0 2.49999,1.21757 2.49999,2.71953 0,0.11848 -0.007,0.23685 -0.0213,0.35432 l -3.214364,26.60884 c -0.163487,1.35336 -1.223884,2.36521 -2.47869,2.36521 H 10.3642 c -1.3807123,0 -2.5000003,-1.21757 -2.5000003,-2.71953 0,-0.11848 0.0071,-0.23685 0.02131,-0.35432 l 3.2143693,-26.60884 c 0.163487,-1.35336 1.223885,-2.36521 2.478691,-2.36521 z m 101.55269,0 c 1.38071,0 2.5,1.21757 2.5,2.71953 0,0.11848 -0.007,0.23685 -0.0213,0.35432 l -3.21437,26.60884 c -0.16349,1.35336 -1.22389,2.36521 -2.47869,2.36521 h -81.4252 c -1.38071,0 -2.5,-1.21757 -2.5,-2.71953 0,-0.11848 0.007,-0.23685 0.0213,-0.35432 l 3.21437,-26.60884 c 0.16349,-1.35336 1.22389,-2.36521 2.47869,-2.36521 z m 107.89973,-50.361 c 1.38072,0 2.5,1.21757 2.5,2.71953 0,0.11849 -0.007,0.23684 -0.0213,0.35433 l -3.21436,26.60884 c -0.16349,1.35336 -1.22389,2.3652 -2.4787,2.3652 h -81.42518 c -1.38071,0 -2.5,-1.21757 -2.5,-2.71953 0,-0.11849 0.007,-0.23684 0.0213,-0.35433 l 3.21437,-26.60884 c 0.16349,-1.35336 1.22388,-2.3652 2.47869,-2.3652 z m -203.10538,0 c 1.38071,0 2.5,1.21757 2.5,2.71953 0,0.11849 -0.007,0.23684 -0.0213,0.35433 l -3.21437,26.60884 c -0.16349,1.35336 -1.22389,2.3652 -2.47869,2.3652 H 16.711244 c -1.380712,0 -2.5,-1.21757 -2.5,-2.71953 0,-0.11849 0.0071,-0.23684 0.02131,-0.35433 l 3.21437,-26.60884 c 0.163487,-1.35336 1.223884,-2.3652 2.47869,-2.3652 z m 101.55269,0 c 1.38071,0 2.5,1.21757 2.5,2.71953 0,0.11849 -0.007,0.23684 -0.0213,0.35433 l -3.21437,26.60884 c -0.16349,1.35336 -1.22388,2.3652 -2.47869,2.3652 h -81.42518 c -1.38072,0 -2.5,-1.21757 -2.5,-2.71953 0,-0.11849 0.007,-0.23684 0.0213,-0.35433 l 3.21437,-26.60884 c 0.16349,-1.35336 1.22389,-2.3652 2.47869,-2.3652 z m 106.8419,-49.216436 c 1.38071,0 2.5,1.217576 2.5,2.719532 0,0.118486 -0.007,0.236847 -0.0213,0.354323 l -3.21437,26.608841 c -0.16349,1.35336 -1.22389,2.36521 -2.47869,2.36521 h -81.42519 c -1.38071,0 -2.5,-1.21757 -2.5,-2.71953 0,-0.11849 0.007,-0.23684 0.0213,-0.35433 l 3.21437,-26.608838 c 0.16349,-1.353358 1.22389,-2.365208 2.47869,-2.365208 z m -203.10539,0 c 1.38071,0 2.5,1.217576 2.5,2.719532 0,0.118486 -0.007,0.236847 -0.0213,0.354323 l -3.21437,26.608841 c -0.16349,1.35336 -1.22388,2.36521 -2.47869,2.36521 H 22.000446 c -1.380711,0 -2.5,-1.21757 -2.5,-2.71953 0,-0.11849 0.0071,-0.23684 0.02131,-0.35433 l 3.21437,-26.608838 c 0.163486,-1.353358 1.223884,-2.365208 2.47869,-2.365208 z m 101.55269,0 c 1.38071,0 2.5,1.217576 2.5,2.719532 0,0.118486 -0.007,0.236847 -0.0213,0.354323 l -3.21437,26.608841 c -0.16348,1.35336 -1.22388,2.36521 -2.47869,2.36521 h -81.42518 c -1.38071,0 -2.5,-1.21757 -2.5,-2.71953 0,-0.11849 0.007,-0.23684 0.0213,-0.35433 l 3.21437,-26.608838 c 0.16348,-1.353358 1.22388,-2.365208 2.47869,-2.365208 z"
     id="path10"
     style="stroke-width:1.04298"
     clip-path="url(#clipPath30)"
     transform="translate(0.84739029,-77.311644)" />
</svg>
