<svg height="86" viewBox="0 0 120 86" width="120" xmlns="http://www.w3.org/2000/svg"><g fill-rule="evenodd"><path d="m90.1099127 35.9323179c.8284271 0 1.5.6715729 1.5 1.5 0 .0654148-.0042791.1307595-.0128098.1956156l-1.1106015 8.4434782c-.0981747.7463845-.7343768 1.3043845-1.4871902 1.3043845h-8.6790609c-.8284271 0-1.5-.6715729-1.5-1.5 0-.0654148.0042791-.1307595.0128099-.1956156l1.1106015-8.4434782c.0981747-.7463845.7343768-1.3043845 1.4871901-1.3043845zm-56.9423697 0c.8284272 0 1.5.6715729 1.5 1.5 0 .0652517-.0042578.1304339-.0127462.1951312l-1.107804 8.4434782c-.0979558.7466008-.7342545 1.3048689-1.4872538 1.3048689h-30.50837045c-.82842713 0-1.5-.6715729-1.5-1.5 0-.0652517.00425778-.1304339.01274621-.1951312l1.10780401-8.4434782c.09795576-.7466008.73425448-1.3048689 1.48725379-1.3048689zm39.3841601 0c.8284271 0 1.5.6715729 1.5 1.5 0 .0652517-.0042578.1304339-.0127462.1951312l-1.1078041 8.4434782c-.0979557.7466008-.7342544 1.3048689-1.4872537 1.3048689h-30.5083705c-.8284271 0-1.5-.6715729-1.5-1.5 0-.0652517.0042578-.1304339.0127462-.1951312l1.107804-8.4434782c.0979558-.7466008.7342545-1.3048689 1.4872538-1.3048689zm41.8456699-17.9826087c.828427 0 1.5.6715729 1.5 1.5 0 .0652517-.004258.1304339-.012746.1951312l-1.107804 8.4434782c-.097956.7466008-.734255 1.3048689-1.487254 1.3048689h-30.5083704c-.8284271 0-1.5-.6715729-1.5-1.5 0-.0652517.0042578-.1304339.0127462-.1951312l1.1078041-8.4434782c.0979557-.7466008.7342544-1.3048689 1.4872537-1.3048689zm-78.76832 0c.8284272 0 1.5.6715729 1.5 1.5 0 .0652517-.0042578.1304339-.0127462.1951312l-1.107804 8.4434782c-.0979557.7466008-.7342545 1.3048689-1.4872538 1.3048689h-30.50837045c-.82842713 0-1.5-.6715729-1.5-1.5 0-.0652517.00425778-.1304339.01274621-.1951312l1.10780401-8.4434782c.09795576-.7466008.73425448-1.3048689 1.48725379-1.3048689zm39.3841601 0c.8284271 0 1.5.6715729 1.5 1.5 0 .0652517-.0042578.1304339-.0127462.1951312l-1.1078041 8.4434782c-.0979557.7466008-.7342544 1.3048689-1.4872537 1.3048689h-30.5083705c-.8284271 0-1.5-.6715729-1.5-1.5 0-.0652517.0042578-.1304339.0127462-.1951312l1.107804-8.4434782c.0979558-.7466008.7342545-1.3048689 1.4872538-1.3048689zm41.4354179-17.57391302c.828428 0 1.5.67157287 1.5 1.5 0 .06525172-.004257.13043391-.012746.19513116l-1.107804 8.44347826c-.097956.7466007-.734254 1.3048688-1.487254 1.3048688h-30.50837c-.8284272 0-1.5-.6715728-1.5-1.5 0-.0652517.0042578-.1304339.0127462-.1951311l1.107804-8.44347828c.0979558-.74660072.7342545-1.30486884 1.4872538-1.30486884zm-78.7683196 0c.8284271 0 1.5.67157287 1.5 1.5 0 .06525172-.0042578.13043391-.0127462.19513116l-1.1078041 8.44347826c-.0979557.7466007-.7342544 1.3048688-1.4872537 1.3048688h-30.50837052c-.82842712 0-1.5-.6715728-1.5-1.5 0-.0652517.00425779-.1304339.01274622-.1951311l1.10780401-8.44347828c.09795575-.74660072.73425447-1.30486884 1.48725379-1.30486884zm39.38416 0c.8284271 0 1.5.67157287 1.5 1.5 0 .06525172-.0042578.13043391-.0127462.19513116l-1.107804 8.44347826c-.0979558.7466007-.7342545 1.3048688-1.4872538 1.3048688h-30.5083705c-.8284271 0-1.5-.6715728-1.5-1.5 0-.0652517.0042578-.1304339.0127462-.1951311l1.1078041-8.44347828c.0979557-.74660072.7342544-1.30486884 1.4872537-1.30486884z" transform="translate(2)"/><g font-family="Gibson-MediumItalic, Gibson" font-size="13" font-style="italic" font-weight="500"><text><tspan x="0" y="67">ERLANG ECOSYSTEM</tspan></text><text><tspan x="36" y="85">FOUNDATION</tspan></text></g></g></svg>