<svg xmlns="http://www.w3.org/2000/svg" viewBox="0 0 104.56 146.38"><defs><style>.cls-1{fill:#294d6f;}.cls-2{fill:#fff;}.cls-3{fill:#f05423;}.cls-4{fill:#4b295c;}</style></defs><title>gotas</title><g id="Capa_2" data-name="Capa 2"><g id="Layer_2" data-name="Layer 2"><path class="cls-1" d="M36.69.72C29.79,7.32,2.15,39.32.57,61.09Q.5,62.05.5,63c0,21.76,16.2,39.4,36.19,39.4S72.87,84.75,72.87,63,43.21,8.11,36.69.72Z"/><path class="cls-2" d="M36.69,102.89C16.46,102.89,0,85,0,63c0-.62,0-1.27.07-1.93C1.73,38.24,31,5.45,36.34.36L36.72,0l.78.88C53.86,19.41,73.37,45.22,73.37,63,73.37,85,56.92,102.89,36.69,102.89Zm0-101.44c-6.14,6.07-34,37.67-35.59,59.68C1,61.77,1,62.4,1,63c0,21.45,16,38.9,35.69,38.9S72.37,84.44,72.37,63C72.37,45.53,53,19.94,36.74,1.54Z"/><path class="cls-3" d="M71.77,23.3c-6.16,5.88-30.82,34.45-32.23,53.88q-.06.86-.06,1.69C39.48,98.28,53.93,114,71.77,114s32.29-15.74,32.29-35.16S77.59,29.89,71.77,23.3Z"/><path class="cls-2" d="M71.77,114.52c-18.08,0-32.79-16-32.79-35.66q0-.85.06-1.73c1.48-20.37,27.63-49.66,32.38-54.2l.38-.36.73.82c14.62,16.54,32,39.59,32,55.47C104.56,98.53,89.85,114.52,71.77,114.52Zm0-90.5C66.18,29.54,41.46,57.63,40,77.21q-.06.84-.06,1.66C40,98,54.24,113.52,71.77,113.52S103.56,98,103.56,78.87c0-8.59-5.51-25.07-31.79-54.81Z"/><path class="cls-4" d="M41.59,60.61C35.8,66.14,12.62,93,11.3,111.24q-.06.81-.06,1.59c0,18.25,13.59,33,30.35,33s30.35-14.79,30.35-33S47.06,66.81,41.59,60.61Z"/><path class="cls-2" d="M41.59,146.38c-17,0-30.85-15-30.85-33.54q0-.8.06-1.63c1.39-19.16,26-46.69,30.44-51l.38-.36.7.8C56.06,76.23,72.44,97.9,72.44,112.84,72.44,131.33,58.6,146.38,41.59,146.38Zm0-85C36.3,66.57,13.13,92.91,11.8,111.28c0,.53-.06,1-.06,1.56,0,17.94,13.39,32.54,29.85,32.54s29.85-14.6,29.85-32.54c0-8.07-5.18-23.55-29.87-51.49Z"/></g></g></svg>