<svg height="242" viewBox="0 0 204 242" width="204" xmlns="http://www.w3.org/2000/svg"><g fill="none"><path d="m2 49v-48h9.2857143v39.6521739h19.7142857v8.3478261zm71.4637965-49c10.8610567 0 18.5362035 7.24597365 18.5362035 17.5768668v13.8462664c0 10.3308932-7.6751468 17.5768668-18.5362035 17.5768668-10.8610568 0-18.4637965-7.2459736-18.4637965-17.5768668v-13.8462664c0-10.33089315 7.6027397-17.5768668 18.4637965-17.5768668zm0 8.96778917c-5.2857143 0-9.0508806 3.80234263-9.0508806 9.25475843v12.5549048c0 5.5241581 3.7651663 9.2547584 9.0508806 9.2547584 5.3581213 0 9.1232876-3.7306003 9.1232876-9.2547584v-12.5549048c0-5.4524158-3.7651663-9.25475843-9.1232876-9.25475843zm39.5362035 40.03221083v-48h8.32287l14.852018 29.8650675v-29.8650675h8.825112v48h-8.32287l-14.852018-29.8650675v29.8650675zm57 0v-48h29.714286v8.34782609h-20.428572v11.44227881h16.071429v8.0599701h-16.071429v11.8020989h20.714286v8.3478261zm34 64h-10.378947l-10.021053-18.5667166h-4.294737v18.5667166h-9.305263v-48h17.536842c9.233684 0 15.747369 6.1169415 15.747369 14.7526237 0 6.8365817-4.151579 12.089955-10.522106 13.9610195zm-24.694737-39.6521739v12.7376312h7.587369c3.793684 0 6.513684-2.6626687 6.513684-6.3328336 0-3.7421289-2.72-6.4047976-6.513684-6.4047976zm-40.23649 39.6521739-2.682156-10.578711h-13.773234l-2.682156 10.578711h-9.931227l13.918216-48h11.163568l13.918216 48zm-4.784386-18.7106447-4.784387-17.8470764-4.784387 17.8470764zm-134.284387 11.1733097 6.8-6.4568085c2.07578947 3.5871155 6.3705263 6.0263545 10.2357895 6.0263545 4.1515789 0 7.0863158-2.439239 7.0863158-5.8111275 0-9.828697-22.83368425-4.5915081-22.83368425-19.8726208 0-8.3938507 6.58526316-14.3484627 15.74736845-14.3484627 5.7978947 0 12.4547368 2.7979502 15.9621052 6.8155198l-5.5115789 6.8155197c-2.9347369-2.7979502-6.9431579-4.6632503-10.4505263-4.6632503-3.3642106 0-5.7978948 2.0087847-5.7978948 4.8784773 0 8.250366 22.7621053 3.0131771 22.7621053 19.8726208 0 8.9677887-7.0147368 15.2811127-16.9642105 15.2811127-7.30105266 0-14.3157895-3.515373-17.0357895-8.537335zm55-31.9709109v-8.4917541h37v8.4917541h-13.7843137v39.5082459h-9.4313726v-39.5082459zm-53 103.5082459v-48h29.7142857v8.347826h-20.4285714v11.442279h16.0714286v8.05997h-16.0714286v11.802099h20.7142857v8.347826zm56 0v-48h9.2857143v39.652174h19.7142857v8.347826zm56 0v-8.347826h10.243902v-31.304348h-9.512195v-8.347826h28.536586v8.347826h-9.512195v31.304348h10.243902v8.347826zm90-48-13.877629 23.964018 13.877629 24.035982h-10.3174l-8.718929-15.112444-8.718929 15.112444h-10.244742l13.804971-24.035982-13.804971-23.964018h10.3174l8.646271 15.04048 8.646272-15.04048zm-202 112v-8.347826h10.2439024v-31.304348h-9.51219508v-8.347826h28.53658538v8.347826h-9.5121951v31.304348h10.2439024v8.347826zm90 0h-10.3789474l-10.0210526-18.566717h-4.2947368v18.566717h-9.3052632v-48h17.5368421c9.2336842 0 15.7473684 6.116942 15.7473684 14.752624 0 6.836581-4.1515789 12.089955-10.5221052 13.961019zm-24.6947368-39.652174v12.737631h7.5873684c3.7936842 0 6.5136842-2.662668 6.5136842-6.332833 0-3.742129-2.72-6.404798-6.5136842-6.404798z" fill="#fff"/><path d="m113.794582 241v-7.767407l17.480813-19.237037c2.239278-2.468149 3.828442-5.444445 3.828442-7.404445 0-3.194074-3.03386-5.734815-7.367945-5.734815-2.744921 0-6.284425 1.66963-8.451468 3.992593l-6.284424-5.226667c3.106095-4.428148 9.24605-7.622222 14.735892-7.622222 9.607223 0 16.469526 6.242963 16.469526 14.591111 0 3.557037-2.239278 8.565926-5.778781 12.268148l-13.074493 13.792593h19.647856v8.348148zm71.705418 1c-10.196281 0-17.5-6.743777-17.5-16.213763v-16.500732c0-9.541728 7.303719-16.285505 17.5-16.285505 10.268595 0 17.5 6.743777 17.5 16.285505v16.500732c0 9.469986-7.231405 16.213763-17.5 16.213763zm-8.099174-32.140556v15.281112c0 4.663251 3.326447 8.035139 8.099174 8.035139s8.099174-3.371888 8.099174-8.035139v-15.281112c0-4.663251-3.326447-8.035139-8.099174-8.035139s-8.099174 3.371888-8.099174 8.035139z" fill="#2bb3e9"/></g></svg>