<?xml version="1.0" encoding="UTF-8" standalone="no"?>
<!DOCTYPE svg PUBLIC "-//W3C//DTD SVG 1.1//EN" "http://www.w3.org/Graphics/SVG/1.1/DTD/svg11.dtd">
<svg width="100%" height="100%" viewBox="0 0 650 650" version="1.1" xmlns="http://www.w3.org/2000/svg" xmlns:xlink="http://www.w3.org/1999/xlink" xml:space="preserve" xmlns:serif="http://www.serif.com/" style="fill-rule:evenodd;clip-rule:evenodd;stroke-linejoin:round;stroke-miterlimit:2;">
    <g transform="matrix(1,0,0,1,85,85)">
        <g transform="matrix(1.9962,-1.10656,1.07174,1.9334,-290.991,116.069)">
            <ellipse cx="177.151" cy="165.49" rx="118.297" ry="122.308" style="fill:rgb(28,63,110);"/>
        </g>
        <g transform="matrix(1.84834,-1.02459,0.992353,1.79018,-251.659,125.249)">
            <ellipse cx="177.151" cy="165.49" rx="118.297" ry="122.308" style="fill:rgb(4,28,65);fill-opacity:0.67;"/>
        </g>
        <g transform="matrix(1,0,0,1,-82,-85)">
            <path d="M411.784,559.842C297.949,601.984 167.071,555.751 106.347,446.206C39.36,325.363 82.95,172.942 203.628,106.047C287.487,59.561 386.645,66.529 461.828,115.66C450.083,120.008 438.523,125.295 427.24,131.55C306.562,198.445 262.972,350.865 329.959,471.709C350.397,508.578 378.782,538.276 411.784,559.842Z" style="fill:rgb(28,63,110);"/>
        </g>
        <g transform="matrix(1,0,0,1,-85,-85)">
            <path d="M411.784,559.842C297.949,601.984 167.071,555.751 106.347,446.206C39.36,325.363 82.95,172.942 203.628,106.047C287.487,59.561 386.645,66.529 461.828,115.66C450.083,120.008 438.523,125.295 427.24,131.55C306.562,198.445 262.972,350.865 329.959,471.709C350.397,508.578 378.782,538.276 411.784,559.842Z" style="fill:rgb(255,243,210);"/>
        </g>
        <g id="layer101" transform="matrix(1.67234,0.0818501,-0.181651,2.21748,236.834,141.94)">
            <path d="M131.7,58.5C131.7,58.5 136.648,53.343 138.047,59.145C136.934,60.363 136.4,61.6 131.4,66.7C128.5,69.6 124.5,72.7 122.6,73.5C118,75.4 111.9,75.4 107.7,73.4C104.5,71.9 104.3,71.9 98.1,75.6C92.9,78.7 90.4,79.5 85.5,79.8C79.7,80.2 79.2,80 77.2,77.5C74.3,73.9 74.4,69.7 77.5,61.2C80.5,52.9 80.5,53 78.2,53C77,53 75.4,55.2 73.1,59.7C68.2,69.7 60.4,81.4 56,85.4C48.5,92.1 38,96.2 27.8,96.2C17.4,96.2 9.1,92 4,84.1C1.3,79.9 -0.368,75.22 -0.205,71.558C0.053,65.773 1.505,62.596 4.105,59.096C7.681,53.968 15.7,48.6 24.6,45.4L29.6,43.7L27.8,40.1C22.2,29.1 31.8,16 45.4,16C51.3,16 57.5,19.1 60,23.3C63.5,28.9 62.1,36 57.6,36C54.8,36 53.3,34.4 52.8,31C52.4,27.8 48,25.6 43.5,26.4C36.5,27.7 32.8,35.4 36.5,40.7C37.7,42.5 39.2,43 43.8,43.2C48.4,43.4 49.5,43.8 49.8,45.4C50.4,48.1 48.3,49 41,49C31.1,49.1 23,53.4 19.2,60.5C17,64.8 17,74.9 19.3,78.4C21.7,82 26.6,84 33,84L38.1,84L35.4,80.5C29.9,73.3 32.1,63.1 40,58.9C46.5,55.4 53.2,56.9 58.4,63.1L61.1,66.3L63.6,63.9C64.9,62.7 67.4,58.8 69,55.3C71.9,49.3 71.9,48.8 70.5,46C68.5,42.2 68.6,37.4 70.6,36.6C75.1,34.9 79,37.6 79,42.4C79,46 81.3,46.6 85,44C87.5,42.2 88.4,42.1 89.5,43C91.5,44.7 91.4,46.1 88.4,55C86,61.9 85.9,63 87.1,65.6C88.8,69.1 93.3,69.9 97.9,67.6L100.9,66L100.8,50.8C100.7,41.7 101.1,33.5 101.9,30.5C103.707,18.632 104.679,14.48 111.729,7.229C115.3,3.556 122.049,1.11 124.3,1.2C127.262,1.319 129.6,1.8 131.3,5C132.9,7.9 134.234,11.478 132.6,18.5L130.049,29.461L124.1,44.5C116.6,59.3 116.2,60.5 117.7,62.2C120,64.8 124.1,64.4 128.2,61.3L131.7,58.5ZM51,75C52.1,73.9 53,72.1 53,71C53,68.4 49.6,65 47,65C44.5,65 41,68.4 41,70.8C41,76.2 47.2,78.8 51,75ZM118,45.6C122,38.5 124.8,30.1 126,21.7C127.1,14.1 125.468,11.137 122.968,13.137C118.633,14.979 116.85,25.383 114.95,36.883C112.15,52.883 113.3,53.8 118,45.6Z" style="fill:rgb(255,243,210);fill-rule:nonzero;stroke:rgb(28,63,110);stroke-width:0.77px;"/>
        </g>
        <g transform="matrix(1.06808,0,0,1.06808,-90.7224,-119.729)">
            <path d="M265.796,440.639L265.625,426.666C259.007,437.415 249.899,442.789 238.304,442.789C233.187,442.789 228.397,441.714 223.934,439.564C219.471,437.415 216.144,434.713 213.954,431.458C211.764,428.204 210.205,424.218 209.276,419.5C208.639,416.335 208.278,411.319 208.194,404.452L207.614,357.019L222.313,357.019L222.817,398.271C222.92,406.691 223.288,412.364 223.923,415.29C224.9,419.53 226.901,422.859 229.924,425.278C232.948,427.696 236.665,428.905 241.074,428.905C245.484,428.905 249.606,427.666 253.44,425.188C257.275,422.71 259.97,419.336 261.523,415.066C263.077,410.797 263.804,404.601 263.705,396.48L263.223,357.019L277.921,357.019L278.943,440.639L265.796,440.639ZM122.427,440.639L120.822,304.535L136.663,304.535L138.079,425.143L197.035,425.143L197.224,440.639L122.427,440.639Z" style="fill:rgb(28,63,110);fill-rule:nonzero;stroke:rgb(28,63,110);stroke-width:7.49px;stroke-miterlimit:1.41421;"/>
        </g>
    </g>
</svg>
